<svg width="20" height="17" viewBox="0 0 20 17" fill="none" xmlns="http://www.w3.org/2000/svg">
<path d="M18.5714 7.08956H4.28571L8.98571 2.42537C9.11961 2.29358 9.22589 2.13678 9.29842 1.96402C9.37094 1.79126 9.40828 1.60596 9.40828 1.41881C9.40828 1.23166 9.37094 1.04636 9.29842 0.873602C9.22589 0.700843 9.11961 0.544045 8.98571 0.412253C8.71805 0.148207 8.35598 0 7.97857 0C7.60116 0 7.23909 0.148207 6.97143 0.412253L0.842857 6.50831C0.306303 7.03761 0.0031897 7.75648 0 8.50725C0.00695227 9.2531 0.309778 9.9662 0.842857 10.492L6.97143 16.5881C7.10463 16.7193 7.26257 16.8233 7.43624 16.8939C7.60992 16.9646 7.79592 17.0006 7.98362 17C8.17133 16.9993 8.35707 16.962 8.53023 16.8901C8.7034 16.8182 8.8606 16.7132 8.99286 16.581C9.12512 16.4488 9.22985 16.2921 9.30107 16.1197C9.37229 15.9474 9.4086 15.7628 9.40794 15.5765C9.40727 15.3902 9.36965 15.2059 9.2972 15.0341C9.22476 14.8622 9.11891 14.7062 8.98571 14.575L4.28571 9.92494H18.5714C18.9503 9.92494 19.3137 9.77558 19.5816 9.50971C19.8495 9.24384 20 8.88325 20 8.50725C20 8.13126 19.8495 7.77066 19.5816 7.50479C19.3137 7.23893 18.9503 7.08956 18.5714 7.08956Z" fill="#51323C"/>
</svg>
