<svg width="573" height="347" viewBox="0 0 573 347" fill="none" xmlns="http://www.w3.org/2000/svg">
<path d="M0 304.468V347L571.485 326.87C573.607 326.667 573.452 323.521 571.32 323.526L144.15 324.777C130.956 324.817 125.953 307.534 137.12 300.501L180.094 273.433C185.034 271.275 184.173 264.823 178.867 263.882L100.112 251H87.879L152.292 266.387C154.248 266.763 154.264 269.563 152.31 269.958L0 304.468Z" fill="#F5EFD9"/>
<path d="M295.959 64.4197C278.17 64.4197 263.749 49.9988 263.749 32.2098C263.749 14.4208 278.17 0 295.959 0C313.748 0 328.169 14.4208 328.169 32.2098C328.169 49.9988 313.748 64.4197 295.959 64.4197Z" fill="#F5EFD9"/>
<path d="M215.236 31.881H282.575C282.575 25.9098 276.441 21.0698 268.876 21.0698C267.228 21.0667 265.589 21.3032 264.01 21.7721C261.5 18.0895 257.649 15.7432 253.33 15.7432C246.846 15.7432 241.414 21.0488 239.994 28.1799C237.503 26.4254 233.481 25.0392 228.946 25.0392C221.37 25.0392 215.236 28.8954 215.236 31.881Z" fill="#EDE0C4"/>
<path d="M328.876 66.9133H398.688C398.688 58.538 389.419 51.7488 377.987 51.7488C370.527 51.7488 363.988 54.6423 360.342 58.9746C356.862 57.8669 353.232 57.3069 349.581 57.3148C338.149 57.3174 328.876 62.7283 328.876 66.9133Z" fill="#EDE0C4"/>
<path d="M516.62 317.969C516.62 320.256 517.375 322.479 518.768 324.294C520.161 326.108 522.114 327.412 524.324 328.004" stroke="#D9AF00" stroke-width="2" stroke-miterlimit="10" stroke-linecap="round"/>
<path d="M314.477 197.312L345.659 294.973C346.256 296.844 347.432 298.477 349.018 299.635C350.604 300.794 352.517 301.418 354.481 301.418H559.977" stroke="#56303C" stroke-width="2" stroke-miterlimit="10" stroke-linecap="round"/>
<path d="M329.497 197.718H301.441" stroke="#E2AD00" stroke-width="2" stroke-linecap="round" stroke-linejoin="round"/>
<path d="M530.048 326.507C524.314 326.507 519.665 321.859 519.665 316.125C519.665 310.391 524.314 305.742 530.048 305.742C535.782 305.742 540.43 310.391 540.43 316.125C540.43 321.859 535.782 326.507 530.048 326.507Z" fill="#A0D6FF"/>
<path d="M530.048 323.242C526.117 323.242 522.93 320.056 522.93 316.124C522.93 312.193 526.117 309.006 530.048 309.006C533.979 309.006 537.166 312.193 537.166 316.124C537.166 320.056 533.979 323.242 530.048 323.242Z" stroke="white" stroke-width="2" stroke-miterlimit="10"/>
<path d="M380.333 326.507C374.599 326.507 369.951 321.859 369.951 316.125C369.951 310.391 374.599 305.742 380.333 305.742C386.067 305.742 390.716 310.391 390.716 316.125C390.716 321.859 386.067 326.507 380.333 326.507Z" fill="#A0D6FF"/>
<path d="M380.333 323.242C376.402 323.242 373.215 320.056 373.215 316.124C373.215 312.193 376.402 309.006 380.333 309.006C384.264 309.006 387.451 312.193 387.451 316.124C387.451 320.056 384.264 323.242 380.333 323.242Z" stroke="#56303C" stroke-width="2" stroke-miterlimit="10" stroke-linecap="round"/>
<path d="M439.245 125.019H540.422V297.331H439.245V125.019Z" fill="#EDE0C4"/>
<path d="M501.515 297.435V125.362" stroke="#F6EED6" stroke-width="2" stroke-miterlimit="10"/>
<path d="M509.078 297.435V125.362" stroke="#F6EED6" stroke-width="2" stroke-miterlimit="10"/>
<path d="M493.724 297.435V125.362" stroke="#F6EED6" stroke-width="2" stroke-miterlimit="10"/>
<path d="M485.933 297.435V125.362" stroke="#F6EED6" stroke-width="2" stroke-miterlimit="10"/>
<path d="M478.141 297.435V125.362" stroke="#F6EED6" stroke-width="2" stroke-miterlimit="10"/>
<path d="M470.35 297.435V125.362" stroke="#F6EED6" stroke-width="2" stroke-miterlimit="10"/>
<path d="M462.558 297.435V125.362" stroke="#F6EED6" stroke-width="2" stroke-miterlimit="10"/>
<path d="M454.767 297.435V125.362" stroke="#F6EED6" stroke-width="2" stroke-miterlimit="10"/>
<path d="M532.347 297.435V125.362" stroke="#F6EED6" stroke-width="2" stroke-miterlimit="10"/>
<path d="M524.553 297.435V125.362" stroke="#F6EED6" stroke-width="2" stroke-miterlimit="10"/>
<path d="M516.761 297.435V125.362" stroke="#F6EED6" stroke-width="2" stroke-miterlimit="10"/>
<path d="M439.529 192.983H540.262" stroke="#F6EED6" stroke-width="2" stroke-miterlimit="10"/>
<path d="M439.529 185.189H540.262" stroke="#F6EED6" stroke-width="2" stroke-miterlimit="10"/>
<path d="M439.529 177.397H540.262" stroke="#F6EED6" stroke-width="2" stroke-miterlimit="10"/>
<path d="M439.529 169.606H540.262" stroke="#F6EED6" stroke-width="2" stroke-miterlimit="10"/>
<path d="M439.529 161.815H540.262" stroke="#F6EED6" stroke-width="2" stroke-miterlimit="10"/>
<path d="M439.529 154.023H540.262" stroke="#F6EED6" stroke-width="2" stroke-miterlimit="10"/>
<path d="M439.529 146.232H540.262" stroke="#F6EED6" stroke-width="2" stroke-miterlimit="10"/>
<path d="M439.529 138.44H539.823" stroke="#F6EED6" stroke-width="2" stroke-miterlimit="10"/>
<path d="M439.529 130.646H540.262" stroke="#F6EED6" stroke-width="2" stroke-miterlimit="10"/>
<path d="M439.529 255.361H540.262" stroke="#F6EED6" stroke-width="2" stroke-miterlimit="10"/>
<path d="M439.529 263.234H540.262" stroke="#F6EED6" stroke-width="2" stroke-miterlimit="10"/>
<path d="M439.529 247.57H540.262" stroke="#F6EED6" stroke-width="2" stroke-miterlimit="10"/>
<path d="M439.529 239.778H540.262" stroke="#F6EED6" stroke-width="2" stroke-miterlimit="10"/>
<path d="M439.529 285.627L540.262 286.032" stroke="#F6EED6" stroke-width="2" stroke-miterlimit="10"/>
<path d="M439.529 293.905H540.262" stroke="#F6EED6" stroke-width="2" stroke-miterlimit="10"/>
<path d="M439.529 278.241H540.262" stroke="#F6EED6" stroke-width="2" stroke-miterlimit="10"/>
<path d="M439.529 270.447H540.262" stroke="#F6EED6" stroke-width="2" stroke-miterlimit="10"/>
<path d="M439.529 231.987H540.262" stroke="#F6EED6" stroke-width="2" stroke-miterlimit="10"/>
<path d="M439.529 224.196H540.262" stroke="#F6EED6" stroke-width="2" stroke-miterlimit="10"/>
<path d="M439.529 216.404H540.262" stroke="#F6EED6" stroke-width="2" stroke-miterlimit="10"/>
<path d="M439.529 208.613H540.262" stroke="#F6EED6" stroke-width="2" stroke-miterlimit="10"/>
<path d="M439.529 200.819H539.823" stroke="#F6EED6" stroke-width="2" stroke-miterlimit="10"/>
<path d="M446.62 297.435V125.362" stroke="#F6EED6" stroke-width="2" stroke-miterlimit="10"/>
<path d="M465.918 166.373C464.561 166.373 463.461 163.667 463.461 160.328C463.461 156.99 464.561 154.284 465.918 154.284C467.274 154.284 468.374 156.99 468.374 160.328C468.374 163.667 467.274 166.373 465.918 166.373Z" fill="#D9AF00"/>
<path d="M458.799 172.129C457.012 169.309 456.492 166.434 457.639 165.708C458.785 164.982 461.162 166.679 462.949 169.499C464.736 172.319 465.255 175.194 464.109 175.92C462.963 176.646 460.585 174.949 458.799 172.129Z" fill="#D9AF00"/>
<path d="M467.727 175.924C466.581 175.198 467.1 172.323 468.887 169.503C470.674 166.683 473.051 164.986 474.198 165.712C475.344 166.438 474.824 169.313 473.038 172.133C471.251 174.953 468.873 176.65 467.727 175.924Z" fill="#D9AF00"/>
<path d="M458.797 185.446C457.01 182.626 456.491 179.752 457.637 179.025C458.783 178.299 461.161 179.996 462.947 182.816C464.734 185.636 465.254 188.511 464.107 189.237C462.961 189.964 460.584 188.266 458.797 185.446Z" fill="#D9AF00"/>
<path d="M467.727 189.241C466.581 188.515 467.1 185.64 468.887 182.82C470.674 180 473.052 178.303 474.198 179.029C475.344 179.756 474.825 182.63 473.038 185.45C471.251 188.27 468.873 189.968 467.727 189.241Z" fill="#D9AF00"/>
<path d="M465.918 163.927V199.733" stroke="#D9AF00" stroke-width="2" stroke-miterlimit="10" stroke-linecap="round"/>
<path d="M465.918 152.019V150.233" stroke="#D9AF00" stroke-width="2" stroke-miterlimit="10" stroke-linecap="round"/>
<path d="M513.423 175.283C512.067 175.283 510.967 172.576 510.967 169.238C510.967 165.899 512.067 163.193 513.423 163.193C514.78 163.193 515.88 165.899 515.88 169.238C515.88 172.576 514.78 175.283 513.423 175.283Z" fill="#D9AF00"/>
<path d="M506.871 181.275C505.068 178.471 504.531 175.604 505.671 174.871C506.81 174.138 509.196 175.818 510.999 178.622C512.801 181.426 513.339 184.293 512.199 185.026C511.059 185.759 508.674 184.08 506.871 181.275Z" fill="#D9AF00"/>
<path d="M514.576 181.413C513.437 180.68 513.974 177.813 515.777 175.008C517.58 172.204 519.965 170.525 521.105 171.258C522.244 171.99 521.707 174.858 519.904 177.662C518.102 180.466 515.716 182.145 514.576 181.413Z" fill="#D9AF00"/>
<path d="M506.302 191.533C504.515 188.713 503.996 185.838 505.142 185.112C506.288 184.386 508.666 186.083 510.453 188.903C512.239 191.723 512.759 194.598 511.613 195.324C510.467 196.05 508.089 194.353 506.302 191.533Z" fill="#D9AF00"/>
<path d="M515.232 195.328C514.086 194.602 514.606 191.727 516.392 188.907C518.179 186.087 520.557 184.39 521.703 185.116C522.849 185.842 522.33 188.717 520.543 191.537C518.756 194.357 516.379 196.054 515.232 195.328Z" fill="#D9AF00"/>
<path d="M513.423 172.839V199.767" stroke="#D9AF00" stroke-width="2" stroke-miterlimit="10" stroke-linecap="round"/>
<path d="M513.423 160.931V159.145" stroke="#D9AF00" stroke-width="2" stroke-miterlimit="10" stroke-linecap="round"/>
<path d="M488.066 155.601C486.709 155.601 485.609 152.895 485.609 149.557C485.609 146.218 486.709 143.512 488.066 143.512C489.423 143.512 490.523 146.218 490.523 149.557C490.523 152.895 489.423 155.601 488.066 155.601Z" fill="#D9AF00"/>
<path d="M480.946 159.743C479.159 156.923 478.64 154.049 479.786 153.322C480.932 152.596 483.31 154.293 485.096 157.113C486.883 159.933 487.403 162.808 486.256 163.534C485.11 164.261 482.733 162.563 480.946 159.743Z" fill="#D9AF00"/>
<path d="M480.948 171.849C479.161 169.029 478.641 166.154 479.787 165.428C480.934 164.702 483.311 166.399 485.098 169.219C486.885 172.039 487.404 174.914 486.258 175.64C485.112 176.366 482.734 174.669 480.948 171.849Z" fill="#D9AF00"/>
<path d="M489.876 163.541C488.729 162.815 489.249 159.94 491.036 157.12C492.823 154.3 495.2 152.603 496.346 153.329C497.492 154.055 496.973 156.93 495.186 159.75C493.399 162.57 491.022 164.267 489.876 163.541Z" fill="#D9AF00"/>
<path d="M489.878 175.647C488.732 174.921 489.251 172.046 491.038 169.226C492.825 166.406 495.202 164.709 496.349 165.435C497.495 166.161 496.975 169.036 495.189 171.856C493.402 174.676 491.024 176.373 489.878 175.647Z" fill="#D9AF00"/>
<path d="M480.946 185.167C479.159 182.347 478.639 179.472 479.786 178.746C480.932 178.02 483.309 179.717 485.096 182.537C486.883 185.357 487.403 188.232 486.256 188.958C485.11 189.684 482.733 187.987 480.946 185.167Z" fill="#D9AF00"/>
<path d="M489.875 188.964C488.729 188.238 489.249 185.363 491.036 182.543C492.822 179.723 495.2 178.026 496.346 178.752C497.492 179.479 496.973 182.353 495.186 185.173C493.399 187.993 491.022 189.691 489.875 188.964Z" fill="#D9AF00"/>
<path d="M488.066 153.158V199.454" stroke="#D9AF00" stroke-width="2" stroke-miterlimit="10" stroke-linecap="round"/>
<path d="M473.359 124.98H505.072V138.867H473.359V124.98Z" fill="white"/>
<path d="M473.359 283.444H505.072V297.33H473.359V283.444Z" fill="white"/>
<path d="M416.647 125.017H439.245V297.33H416.647V125.017Z" fill="#D9AF00"/>
<path d="M461.249 200.935H518.014C520.729 200.935 522.93 203.136 522.93 205.851V220.855C522.93 223.57 520.729 225.771 518.014 225.771H461.249C458.533 225.771 456.332 223.57 456.332 220.855V205.851C456.332 203.136 458.533 200.935 461.249 200.935Z" fill="white"/>
<path d="M465.399 208.842H513.589V217.954H465.399V208.842Z" fill="#A0D6FF"/>
<path d="M500.86 214.108L499.545 212.793C499.226 212.474 498.794 212.296 498.343 212.296C497.892 212.296 497.46 212.474 497.141 212.793L496.041 213.892C495.818 214.115 495.515 214.239 495.2 214.239C494.884 214.239 494.582 214.115 494.358 213.892L493.261 212.793C492.942 212.474 492.51 212.296 492.059 212.296C491.608 212.296 491.176 212.474 490.857 212.793L489.668 213.982C489.557 214.092 489.426 214.18 489.281 214.24C489.137 214.3 488.981 214.331 488.825 214.331C488.668 214.331 488.513 214.3 488.369 214.24C488.224 214.18 488.092 214.092 487.982 213.982L486.795 212.793C486.476 212.474 486.044 212.296 485.593 212.296C485.143 212.296 484.71 212.474 484.391 212.793L483.292 213.892C483.068 214.115 482.765 214.239 482.45 214.239C482.135 214.239 481.832 214.115 481.608 213.892L480.511 212.793C480.192 212.474 479.76 212.296 479.309 212.296C478.858 212.296 478.426 212.474 478.107 212.793L476.529 214.387" stroke="#C06C18" stroke-width="2" stroke-miterlimit="10"/>
<path d="M416.647 125.017C416.647 129.894 421.705 133.85 427.958 133.85C434.21 133.85 439.255 129.905 439.255 125.017" stroke="white" stroke-width="2" stroke-miterlimit="10"/>
<path d="M540.422 131.175L492.054 124.98L540.422 140.75V131.175Z" fill="#56303C"/>
<path d="M500.86 132.188L499.545 130.873C499.388 130.714 499.2 130.589 498.994 130.503C498.788 130.417 498.567 130.373 498.343 130.373C498.12 130.373 497.899 130.417 497.692 130.503C497.486 130.589 497.299 130.714 497.141 130.873L496.041 131.97C495.931 132.08 495.8 132.168 495.655 132.228C495.511 132.288 495.356 132.319 495.2 132.319C495.043 132.319 494.889 132.288 494.744 132.228C494.6 132.168 494.468 132.08 494.358 131.97L493.261 130.873C493.103 130.714 492.916 130.589 492.71 130.503C492.504 130.417 492.282 130.373 492.059 130.373C491.836 130.373 491.614 130.417 491.408 130.503C491.202 130.589 491.015 130.714 490.857 130.873L489.668 132.062C489.557 132.172 489.426 132.26 489.281 132.32C489.137 132.38 488.981 132.411 488.825 132.411C488.668 132.411 488.513 132.38 488.369 132.32C488.224 132.26 488.092 132.172 487.982 132.062L486.795 130.873C486.638 130.714 486.45 130.589 486.244 130.503C486.038 130.417 485.817 130.373 485.593 130.373C485.37 130.373 485.149 130.417 484.942 130.503C484.736 130.589 484.549 130.714 484.391 130.873L483.292 131.97C483.181 132.08 483.05 132.168 482.906 132.228C482.761 132.288 482.606 132.319 482.45 132.319C482.294 132.319 482.139 132.288 481.994 132.228C481.85 132.168 481.719 132.08 481.608 131.97L480.511 130.873C480.354 130.714 480.166 130.589 479.96 130.503C479.754 130.417 479.533 130.373 479.309 130.373C479.086 130.373 478.865 130.417 478.658 130.503C478.452 130.589 478.265 130.714 478.107 130.873L476.529 132.464" stroke="#C06C18" stroke-width="2" stroke-miterlimit="10"/>
<path d="M488.066 142.202V141.287" stroke="#D9AF00" stroke-width="2" stroke-miterlimit="10" stroke-linecap="round"/>
<path d="M354.413 124.583V143.962C354.413 145.683 354.907 147.367 355.837 148.815C356.766 150.263 358.091 151.415 359.655 152.132V152.132C360.151 152.36 360.566 152.733 360.845 153.202C361.124 153.671 361.253 154.214 361.216 154.758C361.179 155.303 360.977 155.823 360.637 156.25C360.297 156.677 359.836 156.99 359.313 157.148L358.914 157.269C357.614 157.662 356.475 158.462 355.665 159.552C354.855 160.641 354.416 161.962 354.413 163.319V163.443C354.414 164.797 354.849 166.115 355.654 167.203C356.458 168.292 357.591 169.094 358.885 169.493V169.493C359.55 169.698 360.141 170.091 360.588 170.624C361.035 171.158 361.319 171.809 361.405 172.499C361.491 173.19 361.376 173.89 361.074 174.517C360.771 175.144 360.294 175.67 359.7 176.032L359.437 176.193C357.905 177.129 356.639 178.443 355.761 180.009C354.882 181.575 354.421 183.341 354.421 185.136V287.074C354.421 287.137 354.421 287.198 354.421 287.258C354.523 290.059 356.941 292.301 359.91 292.301C361.087 292.318 362.238 291.956 363.191 291.266C364.145 290.577 364.851 289.599 365.203 288.476C365.452 287.585 365.948 286.784 366.634 286.164L366.847 285.977C367.707 285.215 368.815 284.792 369.964 284.787C371.113 284.782 372.224 285.194 373.092 285.948L373.323 286.151C374.01 286.733 374.516 287.5 374.783 288.36C375.517 290.846 378.342 292.698 381.714 292.698C385.086 292.698 387.909 290.856 388.645 288.36C388.911 287.497 389.417 286.727 390.103 286.14L390.432 285.851C391.271 285.115 392.343 284.7 393.458 284.678C394.574 284.656 395.661 285.028 396.529 285.73L397.016 286.124C397.776 286.727 398.334 287.547 398.615 288.476C398.965 289.597 399.666 290.576 400.617 291.267C401.567 291.958 402.714 292.324 403.889 292.311C406.859 292.311 409.276 290.07 409.379 287.269C409.379 287.208 409.379 287.148 409.379 287.084V185.61C409.378 183.851 408.936 182.121 408.092 180.579C407.248 179.036 406.03 177.73 404.549 176.782L403.415 176.056C402.848 175.693 402.393 175.179 402.102 174.571C401.811 173.964 401.696 173.287 401.769 172.617C401.843 171.948 402.102 171.312 402.517 170.782C402.933 170.252 403.488 169.848 404.12 169.617L405.223 169.211C406.441 168.765 407.493 167.955 408.236 166.891C408.979 165.828 409.378 164.562 409.379 163.264V163.264C409.378 161.976 408.986 160.72 408.253 159.661C407.521 158.602 406.483 157.792 405.278 157.338L404.636 157.096C404.159 156.915 403.743 156.603 403.437 156.195C403.131 155.787 402.947 155.301 402.906 154.793C402.866 154.285 402.97 153.775 403.208 153.324C403.446 152.873 403.807 152.499 404.249 152.245L404.852 151.903C406.226 151.116 407.369 149.981 408.164 148.611C408.959 147.241 409.378 145.685 409.379 144.101V124.583L405.854 122.337C404.826 121.679 403.631 121.33 402.411 121.33C401.19 121.33 399.995 121.679 398.967 122.337L397.899 123.023C397.222 123.456 396.436 123.686 395.632 123.686C394.828 123.686 394.042 123.456 393.365 123.023L392.312 122.337C391.284 121.679 390.089 121.33 388.868 121.33C387.647 121.33 386.452 121.679 385.423 122.337L384.155 123.147C383.481 123.575 382.699 123.802 381.901 123.802C381.103 123.802 380.321 123.575 379.647 123.147L378.376 122.337C377.348 121.679 376.153 121.33 374.933 121.33C373.713 121.33 372.518 121.679 371.49 122.337L370.422 123.023C369.745 123.456 368.958 123.686 368.154 123.686C367.351 123.686 366.564 123.456 365.887 123.023L364.819 122.337C363.791 121.679 362.596 121.329 361.376 121.329C360.155 121.329 358.96 121.679 357.932 122.337L354.413 124.583Z" fill="#A0D6FF"/>
<path d="M405.87 128.792C404.842 128.134 403.647 127.785 402.426 127.785C401.206 127.785 400.011 128.134 398.983 128.792L397.915 129.479C397.238 129.911 396.451 130.142 395.648 130.142C394.844 130.142 394.057 129.911 393.38 129.479L392.328 128.792C391.3 128.134 390.104 127.785 388.884 127.785C387.663 127.785 386.467 128.134 385.439 128.792L384.171 129.602C383.497 130.03 382.715 130.257 381.917 130.257C381.118 130.257 380.337 130.03 379.662 129.602L378.374 128.792C377.346 128.134 376.151 127.785 374.93 127.785C373.71 127.785 372.515 128.134 371.487 128.792L370.419 129.479C369.742 129.911 368.955 130.142 368.152 130.142C367.348 130.142 366.561 129.911 365.884 129.479L364.816 128.792C363.788 128.134 362.593 127.785 361.373 127.785C360.153 127.785 358.958 128.134 357.93 128.792" stroke="white" stroke-width="2" stroke-miterlimit="10" stroke-linecap="round"/>
<path d="M405.87 135.247C404.84 134.591 403.645 134.244 402.424 134.247C401.204 134.249 400.01 134.601 398.983 135.26L397.915 135.947C397.238 136.38 396.451 136.61 395.648 136.61C394.844 136.61 394.057 136.38 393.38 135.947L392.328 135.26C391.301 134.601 390.106 134.249 388.885 134.247C387.665 134.244 386.469 134.592 385.439 135.247L384.171 136.057C383.497 136.485 382.715 136.712 381.917 136.712C381.118 136.712 380.337 136.485 379.662 136.057L378.392 135.247C377.363 134.591 376.167 134.244 374.947 134.247C373.726 134.249 372.532 134.601 371.505 135.26L370.437 135.947C369.76 136.38 368.974 136.61 368.17 136.61C367.366 136.61 366.58 136.38 365.903 135.947L364.835 135.26C363.807 134.602 362.612 134.252 361.391 134.252C360.171 134.252 358.976 134.602 357.948 135.26" stroke="white" stroke-width="2" stroke-miterlimit="10" stroke-linecap="round"/>
<path d="M350.754 185.165V288.642C350.747 290.761 351.516 292.81 352.915 294.402C354.315 295.994 356.249 297.019 358.352 297.283C360.455 297.547 362.582 297.033 364.332 295.837C366.082 294.641 367.334 292.846 367.852 290.791V290.791C368.431 288.521 371.655 288.521 372.234 290.791C372.71 292.662 373.797 294.32 375.321 295.504C376.845 296.689 378.721 297.331 380.652 297.33H382.582C384.513 297.331 386.388 296.689 387.913 295.504C389.437 294.32 390.524 292.662 391 290.791L391.018 290.714C391.597 288.444 394.822 288.444 395.4 290.714L395.419 290.791C395.937 292.846 397.189 294.641 398.939 295.837C400.689 297.033 402.816 297.547 404.919 297.283C407.022 297.019 408.956 295.994 410.355 294.402C411.755 292.81 412.524 290.761 412.517 288.642V185.165C412.517 181.69 411.136 178.358 408.679 175.9C406.222 173.443 402.889 172.063 399.415 172.063H363.838C360.366 172.068 357.038 173.45 354.585 175.907C352.132 178.364 350.754 181.693 350.754 185.165V185.165Z" stroke="#D9AF00" stroke-width="2" stroke-miterlimit="10"/>
<path d="M358.664 155.246H404.628C408.997 155.246 412.538 158.788 412.538 163.156V164.153C412.538 168.522 408.997 172.063 404.628 172.063H358.664C354.295 172.063 350.754 168.522 350.754 164.153V163.156C350.754 158.788 354.295 155.246 358.664 155.246Z" stroke="#D9AF00" stroke-width="2" stroke-miterlimit="10"/>
<path d="M387.283 101.307H376.006C369.309 101.307 362.886 103.967 358.15 108.703C353.414 113.438 350.754 119.861 350.754 126.559V144.654C350.754 147.464 351.87 150.159 353.857 152.146C355.844 154.133 358.539 155.249 361.349 155.249H401.942C404.752 155.249 407.447 154.133 409.435 152.146C411.422 150.159 412.538 147.464 412.538 144.654V126.559C412.538 123.242 411.885 119.958 410.615 116.895C409.346 113.831 407.486 111.047 405.141 108.702C402.796 106.357 400.011 104.497 396.947 103.228C393.883 101.959 390.599 101.306 387.283 101.307V101.307Z" stroke="#D9AF00" stroke-width="2" stroke-miterlimit="10"/>
<path d="M391.66 90.9819V103.895C391.66 107.548 387.188 110.508 381.646 110.508C376.104 110.508 371.632 107.548 371.632 103.895V90.9819H391.66Z" fill="white" stroke="#D9AF00" stroke-width="2" stroke-miterlimit="10"/>
<path d="M381.646 97.5949C376.115 97.5949 371.632 94.6342 371.632 90.982C371.632 87.3297 376.115 84.369 381.646 84.369C387.177 84.369 391.66 87.3297 391.66 90.982C391.66 94.6342 387.177 97.5949 381.646 97.5949Z" fill="white" stroke="#D9AF00" stroke-width="2" stroke-miterlimit="10"/>
<path d="M371.632 90.9819V95.4221C371.632 99.0732 376.117 102.035 381.646 102.035C387.175 102.035 391.66 99.0679 391.66 95.4221V90.9819" stroke="#A0D6FF" stroke-width="2" stroke-miterlimit="10"/>
<path d="M381.646 97.5949C376.115 97.5949 371.632 94.6342 371.632 90.982C371.632 87.3297 376.115 84.369 381.646 84.369C387.177 84.369 391.66 87.3297 391.66 90.982C391.66 94.6342 387.177 97.5949 381.646 97.5949Z" fill="white" stroke="#A0D6FF" stroke-width="2" stroke-miterlimit="10"/>
<path d="M369.448 147.91H395.158C398.018 147.91 400.335 150.228 400.335 153.087V175.869C400.335 178.728 398.018 181.046 395.158 181.046H369.448C366.589 181.046 364.272 178.728 364.272 175.869V153.087C364.272 150.228 366.589 147.91 369.448 147.91Z" fill="white"/>
<path d="M377.101 165.647C377.085 166.341 377.208 167.03 377.463 167.675C377.717 168.32 378.098 168.908 378.583 169.404C379.068 169.899 379.647 170.293 380.286 170.562C380.925 170.831 381.612 170.97 382.305 170.97C382.998 170.97 383.685 170.831 384.324 170.562C384.963 170.293 385.542 169.899 386.027 169.404C386.512 168.908 386.893 168.32 387.147 167.675C387.402 167.03 387.525 166.341 387.509 165.647C387.509 162.772 382.304 155.986 382.304 155.986C382.304 155.986 377.101 162.772 377.101 165.647Z" fill="#A0D6FF"/>
<path d="M379.276 165.403C379.276 165.833 379.361 166.259 379.525 166.656C379.69 167.053 379.931 167.414 380.235 167.718C380.539 168.022 380.9 168.264 381.298 168.428C381.695 168.593 382.121 168.677 382.551 168.677" stroke="white" stroke-width="2" stroke-miterlimit="10" stroke-linecap="round"/>
<path d="M454.549 189.292V285.275C454.549 291.927 470.029 297.319 489.123 297.319C508.218 297.319 523.701 291.927 523.701 285.275V189.292C523.701 182.64 508.22 177.247 489.123 177.247C470.026 177.247 454.549 182.65 454.549 189.292Z" fill="#A0D6FF"/>
<path d="M489.528 206.998C508.623 206.998 524.103 201.605 524.103 194.953" stroke="white" stroke-width="2" stroke-miterlimit="10" stroke-linecap="round"/>
<path d="M489.528 239.686C508.623 239.686 524.103 234.291 524.103 227.639" stroke="white" stroke-width="2" stroke-miterlimit="10" stroke-linecap="round"/>
<path d="M489.528 272.372C508.623 272.372 524.103 266.98 524.103 260.328" stroke="white" stroke-width="2" stroke-miterlimit="10" stroke-linecap="round"/>
<path d="M499.556 212.132C513.76 210.636 524.103 206.04 524.103 200.603" stroke="white" stroke-width="2" stroke-miterlimit="10" stroke-linecap="round"/>
<path d="M489.528 212.648C491.551 212.648 493.532 212.587 495.46 212.472" stroke="white" stroke-width="2" stroke-miterlimit="10" stroke-linecap="round"/>
<path d="M516.735 216.507C521.346 214.46 524.1 211.88 524.1 209.078" stroke="white" stroke-width="2" stroke-miterlimit="10" stroke-linecap="round"/>
<path d="M489.528 221.121C498.88 221.121 507.363 219.826 513.586 217.725" stroke="white" stroke-width="2" stroke-miterlimit="10" stroke-linecap="round"/>
<path d="M516.735 261.301C521.346 259.254 524.1 256.674 524.1 253.87" stroke="white" stroke-width="2" stroke-miterlimit="10" stroke-linecap="round"/>
<path d="M489.528 265.915C498.88 265.915 507.363 264.623 513.586 262.521" stroke="white" stroke-width="2" stroke-miterlimit="10" stroke-linecap="round"/>
<path d="M454.549 189.292C454.549 195.945 470.029 201.337 489.123 201.337C508.218 201.337 523.701 195.945 523.701 189.292C523.701 182.64 508.22 177.258 489.115 177.258C470.011 177.258 454.549 182.65 454.549 189.292Z" fill="white"/>
<path d="M457.592 189.292C457.592 194.837 471.71 199.33 489.123 199.33C506.537 199.33 520.657 194.848 520.657 189.292C520.657 183.737 506.539 179.268 489.115 179.268C471.691 179.268 457.592 183.768 457.592 189.292Z" stroke="#D9AF00" stroke-width="2" stroke-miterlimit="10" stroke-linecap="round"/>
<path d="M463.058 188.619C463.058 188.619 474.44 194.082 477.457 194.082C478.906 194.082 480.296 193.507 481.321 192.482C482.345 191.457 482.921 190.068 482.921 188.619C482.921 187.17 482.345 185.78 481.321 184.756C480.296 183.731 478.906 183.155 477.457 183.155C474.44 183.155 463.058 188.619 463.058 188.619Z" fill="#D9AF00"/>
<path d="M475.966 192.261C473.955 191.428 473 189.123 473.833 187.112C474.666 185.102 476.971 184.147 478.982 184.98C480.992 185.813 481.947 188.118 481.114 190.128C480.281 192.139 477.976 193.093 475.966 192.261Z" fill="white"/>
<path d="M463.058 186.188V190.894" stroke="#6DD7FF" stroke-width="2" stroke-miterlimit="10" stroke-linecap="round"/>
<path d="M454.549 218.701V254.212C454.549 259.438 464.11 263.889 477.473 265.557V230.046C464.11 228.378 454.549 223.927 454.549 218.701Z" fill="#D9AF00"/>
<path d="M443.211 184.678L437.969 200.977" stroke="#56303C" stroke-width="2" stroke-miterlimit="10" stroke-linecap="round"/>
<path d="M434.297 297.33C408.204 297.33 387.051 275.5 387.051 248.572C387.051 221.644 408.204 199.814 434.297 199.814C460.39 199.814 481.542 221.644 481.542 248.572C481.542 275.5 460.39 297.33 434.297 297.33Z" fill="#B4702F"/>
<path d="M385.923 229.591C382.9 237.007 381.695 245.039 382.409 253.016C383.123 260.993 385.735 268.683 390.026 275.445" stroke="white" stroke-width="2" stroke-miterlimit="10" stroke-linecap="round"/>
<path d="M475.874 223.517C471.054 214.993 463.743 208.146 454.922 203.894" stroke="white" stroke-width="2" stroke-miterlimit="10" stroke-linecap="round"/>
<path d="M416.778 214.121C406.046 220.213 398.773 231.995 398.773 245.529" stroke="#6DD7FF" stroke-width="2" stroke-miterlimit="10" stroke-linecap="round"/>
<path d="M427.947 210.044C427 210.175 426.066 210.351 425.146 210.57" stroke="#6DD7FF" stroke-width="2" stroke-miterlimit="10" stroke-linecap="round"/>
<path d="M419.566 287.232C419.567 287.703 419.755 288.156 420.089 288.489C420.423 288.823 420.875 289.01 421.347 289.01H424.143V290.63C424.134 290.87 424.173 291.108 424.258 291.332C424.344 291.556 424.473 291.761 424.639 291.933C424.806 292.106 425.005 292.243 425.225 292.337C425.446 292.431 425.683 292.479 425.923 292.479C426.162 292.479 426.399 292.431 426.62 292.337C426.84 292.243 427.04 292.106 427.206 291.933C427.372 291.761 427.502 291.556 427.587 291.332C427.672 291.108 427.711 290.87 427.702 290.63V289.01H430.501C430.74 289.019 430.979 288.98 431.203 288.895C431.427 288.809 431.632 288.68 431.804 288.514C431.977 288.347 432.114 288.148 432.208 287.928C432.302 287.707 432.35 287.47 432.35 287.23C432.35 286.991 432.302 286.754 432.208 286.533C432.114 286.313 431.977 286.113 431.804 285.947C431.632 285.781 431.427 285.651 431.203 285.566C430.979 285.481 430.74 285.442 430.501 285.451H427.705V283.099C427.687 282.639 427.492 282.204 427.16 281.884C426.828 281.565 426.386 281.387 425.925 281.387C425.465 281.387 425.022 281.565 424.691 281.884C424.359 282.204 424.164 282.639 424.146 283.099V285.451H421.347C420.875 285.451 420.422 285.638 420.088 285.972C419.754 286.306 419.566 286.759 419.566 287.232Z" fill="#B4702F"/>
<path d="M422.42 186.065C425.035 193.567 434.352 197.141 434.352 197.141C434.352 197.141 439.432 188.553 436.82 181.051C434.208 173.549 424.89 169.974 424.89 169.974C424.89 169.974 419.808 178.563 422.42 186.065Z" fill="#B4702F"/>
<path d="M424.89 169.974C424.89 169.974 419.808 178.563 422.42 186.065C425.032 193.567 434.352 197.141 434.352 197.141L424.89 169.974Z" fill="#56303C"/>
<path d="M481.974 224.806H539.694C542.329 224.806 544.465 226.942 544.465 229.578V232.524C544.465 235.159 542.329 237.295 539.694 237.295H481.974C479.338 237.295 477.202 235.159 477.202 232.524V229.578C477.202 226.942 479.338 224.806 481.974 224.806Z" fill="#56303C"/>
<path d="M474.401 237.295H547.269C554.288 237.295 559.977 242.985 559.977 250.003V284.583C559.977 291.601 554.288 297.291 547.269 297.291H474.401C467.382 297.291 461.693 291.601 461.693 284.583V250.003C461.693 242.985 467.382 237.295 474.401 237.295Z" fill="white" stroke="#B4702F" stroke-width="2" stroke-miterlimit="10"/>
<path d="M475.103 293.487H546.567C549.109 293.486 551.546 292.476 553.343 290.679C555.14 288.881 556.15 286.443 556.15 283.902V250.682C556.15 245.389 551.86 242.309 546.567 242.309H475.103C469.811 242.309 465.52 245.389 465.52 250.682V283.902C465.52 286.443 466.53 288.881 468.327 290.679C470.124 292.476 472.561 293.486 475.103 293.487Z" fill="#D9AF00"/>
<path d="M480.748 283.62C479.294 283.62 478.115 282.441 478.115 280.987C478.115 279.533 479.294 278.354 480.748 278.354C482.202 278.354 483.381 279.533 483.381 280.987C483.381 282.441 482.202 283.62 480.748 283.62Z" fill="white"/>
<path d="M484.933 285.782C484.343 285.782 483.865 285.304 483.865 284.714C483.865 284.125 484.343 283.646 484.933 283.646C485.523 283.646 486.001 284.125 486.001 284.714C486.001 285.304 485.523 285.782 484.933 285.782Z" fill="white"/>
<path d="M490.909 256.166C489.926 256.166 489.129 255.369 489.129 254.385C489.129 253.402 489.926 252.604 490.909 252.604C491.893 252.604 492.69 253.402 492.69 254.385C492.69 255.369 491.893 256.166 490.909 256.166Z" fill="white"/>
<path d="M536.932 279.312C535.752 279.312 534.796 278.355 534.796 277.176C534.796 275.996 535.752 275.04 536.932 275.04C538.111 275.04 539.068 275.996 539.068 277.176C539.068 278.355 538.111 279.312 536.932 279.312Z" fill="white"/>
<path d="M543.4 274.414C542.81 274.414 542.332 273.935 542.332 273.346C542.332 272.756 542.81 272.278 543.4 272.278C543.99 272.278 544.468 272.756 544.468 273.346C544.468 273.935 543.99 274.414 543.4 274.414Z" fill="white"/>
<path d="M498.201 224.401V272.357L501.434 269.121L504.577 272.265L507.718 269.121L510.951 272.357L514.184 269.121L517.327 272.265L520.468 269.121L523.701 272.357V224.401H498.201Z" fill="#EDE0C4"/>
<path d="M505.153 244.332H510.059L512.513 248.583L510.059 252.831H505.153L502.699 248.583L505.153 244.332Z" fill="white"/>
<path d="M514.018 249.603H518.924L521.378 253.854L518.924 258.102H514.018L511.564 253.854L514.018 249.603Z" fill="white"/>
<path d="M505.153 254.788H510.059L512.513 259.039L510.059 263.287H505.153L502.699 259.039L505.153 254.788Z" fill="white"/>
<path d="M523.701 272.357L521.097 269.752C520.93 269.586 520.704 269.492 520.468 269.492C520.232 269.492 520.006 269.586 519.839 269.752L517.327 272.265L514.812 269.752C514.646 269.586 514.42 269.492 514.184 269.492C513.948 269.492 513.722 269.586 513.555 269.752L510.951 272.357L508.347 269.752C508.18 269.586 507.954 269.492 507.718 269.492C507.482 269.492 507.256 269.586 507.089 269.752L504.577 272.265L502.063 269.752C501.896 269.586 501.67 269.492 501.434 269.492C501.198 269.492 500.972 269.586 500.805 269.752L498.201 272.357" stroke="white" stroke-width="2" stroke-linejoin="round"/>
<path d="M456.332 120.406L540.585 131.191L543.808 131.601L558.559 133.495H558.628L564.194 134.208L570.846 82.2068L464.813 68.6258C464.332 68.566 463.847 68.6981 463.463 68.9935C463.079 69.289 462.827 69.7239 462.761 70.2041L456.332 120.406Z" fill="#D9AF00"/>
<path d="M462.907 67.5733L492.011 71.395L485.194 123.309L456.091 119.487L462.907 67.5733Z" fill="#B4702F"/>
<path d="M492.159 72.0848C491.391 78.077 508.386 85.1924 530.116 87.9754C551.846 90.7584 570.086 88.1569 570.854 82.1621L492.159 72.0848Z" fill="#A0D6FF"/>
<path d="M512.616 112.254C515.136 117.644 521.436 120.272 523.808 121.093L518.408 109.545C518.339 109.376 518.338 109.187 518.404 109.016C518.47 108.846 518.6 108.708 518.765 108.63C518.931 108.553 519.12 108.541 519.293 108.599C519.466 108.657 519.611 108.779 519.697 108.94L525.097 120.49C525.987 118.144 528.009 111.626 525.489 106.233C522.354 99.5257 513.374 97.0978 513.374 97.0978C513.374 97.0978 509.48 105.547 512.616 112.254Z" fill="white"/>
<path d="M535.593 113.12L528.835 118.925C530.811 119.07 535.374 119.073 538.449 116.437C542.466 112.991 542.419 106.341 542.419 106.341C542.419 106.341 535.843 105.289 531.834 108.724C528.762 111.355 528.067 115.866 527.909 117.844L534.677 112.039C534.747 111.972 534.83 111.919 534.921 111.885C535.012 111.851 535.109 111.836 535.206 111.841C535.303 111.846 535.398 111.87 535.485 111.913C535.572 111.956 535.649 112.016 535.712 112.089C535.775 112.163 535.823 112.249 535.852 112.341C535.88 112.434 535.89 112.532 535.88 112.628C535.87 112.725 535.84 112.818 535.792 112.902C535.745 112.987 535.68 113.061 535.603 113.12H535.593Z" fill="white"/>
<path d="M534.662 103.269C533.357 103.269 532.3 102.211 532.3 100.907C532.3 99.602 533.357 98.5444 534.662 98.5444C535.966 98.5444 537.024 99.602 537.024 100.907C537.024 102.211 535.966 103.269 534.662 103.269Z" stroke="#56303C" stroke-width="2" stroke-miterlimit="10" stroke-linecap="round"/>
<path d="M525.388 101.715C524.184 101.211 523.618 99.827 524.122 98.6238C524.626 97.4207 526.011 96.8541 527.214 97.3584C528.417 97.8627 528.984 99.2468 528.479 100.45C527.975 101.653 526.591 102.22 525.388 101.715Z" stroke="#56303C" stroke-width="2" stroke-miterlimit="10" stroke-linecap="round"/>
<path d="M531.353 96.5717C530.048 96.5717 528.99 95.5141 528.99 94.2096C528.99 92.905 530.048 91.8474 531.353 91.8474C532.657 91.8474 533.715 92.905 533.715 94.2096C533.715 95.5141 532.657 96.5717 531.353 96.5717Z" stroke="#56303C" stroke-width="2" stroke-miterlimit="10" stroke-linecap="round"/>
<path d="M484.583 123.355L472.149 112.615L457.069 119.638" stroke="#56303C" stroke-width="2" stroke-miterlimit="10" stroke-linecap="round"/>
<path d="M491.351 72.4873L476.06 82.0858L472.149 112.615" stroke="#56303C" stroke-width="2" stroke-miterlimit="10" stroke-linecap="round"/>
<path d="M463.603 69.0282L476.06 82.0857" stroke="#56303C" stroke-width="2" stroke-miterlimit="10" stroke-linecap="round"/>
<path d="M183.263 307.299L183.684 315.351L191.741 315.262L199.185 310.096L188.74 301.415L187.072 303.977C186.136 305.417 184.817 306.568 183.263 307.299V307.299Z" fill="#B4702F"/>
<path d="M188.74 301.418L199.188 310.101L195.979 312.326L188.74 301.418Z" fill="#56303C"/>
<path d="M161.756 306.431L186.243 325.87C186.656 326.201 187.151 326.413 187.675 326.485C188.199 326.556 188.733 326.484 189.219 326.276C189.705 326.067 190.125 325.731 190.435 325.302C190.745 324.874 190.933 324.369 190.978 323.842L191.749 315.264L183.692 315.354L183.271 307.302C181.392 308.19 179.27 308.42 177.245 307.954L162.64 304.611C162.411 304.556 162.17 304.582 161.957 304.683C161.743 304.784 161.571 304.954 161.468 305.167C161.365 305.379 161.338 305.62 161.39 305.85C161.442 306.08 161.572 306.285 161.756 306.431V306.431Z" fill="#D9AF00"/>
<path d="M188.077 327.314L160.544 305.411" stroke="#56303C" stroke-miterlimit="10" stroke-linecap="round"/>
<path d="M177.263 306.176L178.92 307.583L180.325 305.926C180.51 305.709 180.65 305.457 180.737 305.186C180.825 304.914 180.858 304.628 180.835 304.344C180.812 304.059 180.733 303.782 180.602 303.528C180.472 303.275 180.293 303.049 180.075 302.864V302.864C179.857 302.68 179.604 302.541 179.332 302.455C179.06 302.368 178.774 302.336 178.489 302.361C178.205 302.385 177.928 302.465 177.675 302.597C177.421 302.729 177.197 302.909 177.013 303.127V303.127C176.644 303.566 176.464 304.132 176.511 304.703C176.557 305.274 176.828 305.804 177.263 306.176Z" stroke="#56303C" stroke-miterlimit="10" stroke-linecap="round"/>
<path d="M296.246 306.894L298.421 312.952H307.133L308.533 305.411L308.359 305.248L304.274 301.418L296.246 306.894Z" fill="#B4702F"/>
<path d="M304.277 301.418L296.246 306.894L297.735 311.04L304.277 301.418Z" fill="#56303C"/>
<path d="M308.533 305.411L307.133 312.952H298.453L298.658 313.512C299.074 317.148 297.414 321.825 294.015 323.187L289.783 324.723C289.584 324.804 289.42 324.951 289.318 325.14C289.216 325.328 289.182 325.546 289.223 325.757C289.264 325.967 289.376 326.157 289.541 326.294C289.706 326.43 289.913 326.506 290.128 326.507H303.453L316.469 311.974C317.618 310.687 317.082 308.241 315.448 307.689L308.533 305.411Z" fill="#D9AF00"/>
<path d="M318.044 310.393L303.448 326.509H288.996" stroke="#56303C" stroke-miterlimit="10" stroke-linecap="round"/>
<path d="M296.107 318.024L298.111 317.19L297.277 315.183C297.168 314.919 297.007 314.68 296.805 314.478C296.603 314.277 296.363 314.117 296.099 314.008C295.836 313.9 295.553 313.844 295.267 313.845C294.982 313.845 294.7 313.902 294.436 314.012V314.012C294.173 314.122 293.933 314.282 293.732 314.484C293.53 314.686 293.37 314.926 293.262 315.19C293.153 315.454 293.097 315.737 293.098 316.022C293.099 316.307 293.156 316.59 293.266 316.853V316.853C293.487 317.385 293.911 317.807 294.444 318.027C294.976 318.246 295.575 318.245 296.107 318.024Z" stroke="#56303C" stroke-miterlimit="10" stroke-linecap="round"/>
<path d="M188.74 301.418L205.506 315.359L252.228 233.815L258.446 259.857L293.058 308.567L309.275 298.019L281.97 240.97L275.555 187.953C275.248 185.43 274.029 183.106 272.126 181.42C270.224 179.734 267.77 178.803 265.228 178.802H239.82C239.684 178.802 239.551 178.843 239.437 178.919C239.324 178.994 239.236 179.102 239.184 179.228V179.228L188.74 301.418Z" fill="#EDE0C4"/>
<path d="M252.228 233.818L269.326 202.729C271.224 199.282 272.219 195.412 272.219 191.478" stroke="#56303C" stroke-miterlimit="10" stroke-linecap="round"/>
<path d="M205.506 315.354L188.74 301.418" stroke="#56303C" stroke-miterlimit="10" stroke-linecap="round"/>
<path d="M309.275 298.014L293.058 308.562" stroke="#56303C" stroke-miterlimit="10" stroke-linecap="round"/>
<path d="M240.167 180.209L249.211 193.814" stroke="#56303C" stroke-miterlimit="10" stroke-linecap="round"/>
<path d="M240.507 90.6505L249.824 87.6176C249.824 87.6176 252.412 80.6364 250.994 78.3716C249.576 76.1067 234.096 73.8656 234.096 73.8656C229.645 72.9976 225.779 73.9051 225.263 76.0252C224.711 78.2848 228.157 81.0678 232.976 82.2409L240.507 90.6505Z" fill="#56303C"/>
<path d="M226.523 90.1849H227.838C227.918 90.1833 227.996 90.1995 228.068 90.2324C228.14 90.2653 228.204 90.314 228.254 90.375C228.305 90.4359 228.341 90.5075 228.36 90.5843C228.379 90.6612 228.381 90.7414 228.364 90.8189L227.425 95.5064C227.362 95.8233 227.37 96.1503 227.449 96.4638C227.528 96.7773 227.675 97.0695 227.88 97.3193C228.085 97.5691 228.343 97.7703 228.635 97.9085C228.927 98.0467 229.246 98.1184 229.569 98.1184H231.282C231.924 98.1191 232.541 98.3749 232.995 98.8297C233.449 99.2844 233.704 99.9009 233.704 100.544V107.188H258.599C257.312 107.19 256.048 106.848 254.938 106.197C253.829 105.546 252.913 104.611 252.286 103.487L248.232 94.4173C249.09 94.2073 249.852 93.7158 250.397 93.0214C250.942 92.3271 251.238 91.4701 251.239 90.5874V90.5637C251.239 90.0426 251.137 89.5265 250.938 89.0449C250.738 88.5634 250.446 88.1258 250.078 87.7571C249.71 87.3885 249.272 87.0961 248.791 86.8966C248.309 86.6971 247.793 86.5944 247.272 86.5944H246.814C246.019 86.5947 245.24 86.8229 244.571 87.252L242.953 88.3042C238.605 86.4129 240.28 80.9863 240.28 80.9863C231.779 81.9306 229.056 77.109 229.056 77.109L225.923 89.4379C225.902 89.5279 225.901 89.6216 225.921 89.7119C225.941 89.8022 225.982 89.8867 226.04 89.9588C226.098 90.031 226.171 90.0889 226.255 90.1281C226.339 90.1673 226.431 90.1867 226.523 90.1849V90.1849Z" fill="#B4702F"/>
<path d="M231.284 98.1183C231.921 98.119 232.532 98.3721 232.984 98.8222C233.435 99.2723 233.689 99.8827 233.691 100.52L233.707 104.466L240.283 96.6453C239.854 97.1093 239.333 97.4794 238.753 97.7325C238.174 97.9855 237.548 98.116 236.916 98.1157L231.284 98.1183Z" fill="#56303C"/>
<path d="M233.643 83.4376L230.468 82.6639L230.331 83.2287C230.245 83.5818 230.302 83.9547 230.491 84.2652C230.68 84.5758 230.985 84.7986 231.338 84.8847L234.484 85.6516L234.628 85.0613C234.712 84.7154 234.656 84.3501 234.471 84.0457C234.286 83.7413 233.988 83.5226 233.643 83.4376V83.4376Z" fill="#56303C"/>
<path d="M231.108 86.9021C231.122 87.0252 231.171 87.1417 231.249 87.2375C231.328 87.3334 231.432 87.4045 231.55 87.4423C231.668 87.4801 231.794 87.4829 231.914 87.4505C232.033 87.4181 232.141 87.3517 232.224 87.2595C232.306 87.1673 232.361 87.0531 232.38 86.9308C232.399 86.8084 232.383 86.6831 232.332 86.57C232.282 86.4568 232.2 86.3607 232.096 86.2931C231.992 86.2256 231.871 86.1895 231.747 86.1892C231.568 86.1994 231.4 86.2801 231.281 86.4137C231.161 86.5473 231.099 86.7229 231.108 86.9021V86.9021Z" fill="#56303C"/>
<path d="M247.84 89.0723C247.533 89.0723 247.229 89.1328 246.946 89.2503C246.662 89.3679 246.405 89.5402 246.188 89.7573C245.971 89.9745 245.799 90.2323 245.682 90.516C245.564 90.7997 245.504 91.1038 245.505 91.4107" stroke="#56303C" stroke-width="2" stroke-miterlimit="10" stroke-linecap="round"/>
<path d="M246.154 89.785L247.569 91.1055" stroke="#56303C" stroke-width="2" stroke-miterlimit="10" stroke-linecap="round"/>
<path d="M228.075 92.2655C228.988 92.4497 230.469 91.6211 230.469 90.9503" stroke="#56303C" stroke-width="2" stroke-miterlimit="10"/>
<path d="M229.464 73.3658L251.134 83.6245L251.302 82.8223C251.886 80.0488 251.467 77.158 250.118 74.6653C248.769 72.1726 246.578 70.24 243.937 69.2123L237.2 66.5977C236.351 66.267 235.412 66.2489 234.551 66.5467C233.69 66.8445 232.963 67.4388 232.499 68.2233L229.464 73.3658Z" fill="#A0D6FF"/>
<path d="M251.134 83.6351L223.995 71.1089" stroke="#D9AF00" stroke-width="2" stroke-miterlimit="10" stroke-linecap="round"/>
<path d="M232.284 68.5916L236.401 70.325L235.269 73.1238L230.798 71.1089L232.284 68.5916Z" fill="#D9AF00"/>
<path d="M269.702 178.797H241.191C240.407 178.797 239.648 178.53 239.037 178.039C238.426 177.549 238.001 176.865 237.832 176.101L230.056 141.116C228.604 134.586 228.675 127.809 230.261 121.311L233.699 107.188H260.451C264.274 107.187 268.031 108.183 271.352 110.077C274.674 111.971 277.444 114.698 279.39 117.989L314.285 177.347C314.736 178.113 315.022 178.965 315.126 179.848C315.23 180.731 315.148 181.625 314.887 182.475C314.625 183.324 314.19 184.11 313.608 184.782C313.026 185.454 312.311 185.997 311.508 186.378L305.65 189.15C304.286 189.796 302.738 189.938 301.279 189.553C299.82 189.168 298.545 188.28 297.677 187.046L272.425 151.206L274.484 173.533C274.546 174.199 274.469 174.871 274.257 175.506C274.045 176.14 273.703 176.724 273.253 177.219C272.803 177.714 272.255 178.11 271.644 178.382C271.032 178.654 270.371 178.795 269.702 178.797V178.797Z" fill="#A0D6FF"/>
<path d="M237.779 111.707H235.53" stroke="#56303C" stroke-width="2" stroke-miterlimit="10" stroke-linecap="round"/>
<path d="M235.53 112.846C234.901 112.846 234.391 112.336 234.391 111.707C234.391 111.078 234.901 110.568 235.53 110.568C236.159 110.568 236.669 111.078 236.669 111.707C236.669 112.336 236.159 112.846 235.53 112.846Z" fill="#D9AF00"/>
<path d="M237.374 116.955H235.125" stroke="#56303C" stroke-width="2" stroke-miterlimit="10" stroke-linecap="round"/>
<path d="M235.125 118.086C234.496 118.086 233.986 117.576 233.986 116.947C233.986 116.318 234.496 115.808 235.125 115.808C235.754 115.808 236.264 116.318 236.264 116.947C236.264 117.576 235.754 118.086 235.125 118.086Z" fill="#D9AF00"/>
<path d="M262.568 132.504L263.376 138.401" stroke="white" stroke-width="2" stroke-miterlimit="10" stroke-linecap="round"/>
<path d="M272.438 151.211L259.215 133.074" stroke="#56303C" stroke-width="2" stroke-miterlimit="10" stroke-linecap="round"/>
<path d="M228.775 139.127H236.211C237.106 139.127 237.832 139.852 237.832 140.747V144.961C237.832 145.856 237.106 146.582 236.211 146.582H228.775C227.88 146.582 227.155 145.856 227.155 144.961V140.747C227.155 139.852 227.88 139.127 228.775 139.127Z" fill="#F6EED6"/>
<path d="M260.046 107.188L246.325 113.959C242.594 115.797 239.382 118.539 236.981 121.935C234.58 125.331 233.066 129.273 232.576 133.403L231.855 139.487L231.676 112.233" stroke="white" stroke-width="2" stroke-miterlimit="10" stroke-linecap="round"/>
<path d="M231.966 137.409V139.487" stroke="#56303C" stroke-width="2" stroke-miterlimit="10" stroke-linecap="round"/>
<path d="M236.264 146.582H231.271L231.59 148.015L236.264 146.582Z" fill="#56303C"/>
<path d="M229.333 142.113H235.041V143.417H229.333V142.113Z" fill="#D9AF00"/>
<path d="M235.451 106.896L233.705 105.334V102.84L231.3 106.26C231.028 106.649 230.861 107.102 230.815 107.574C230.769 108.047 230.845 108.524 231.037 108.958L232.487 112.231L233.699 107.188H238.776L241.159 111.315L260.451 107.188L254.706 100.002C254.318 99.5157 253.779 99.1723 253.174 99.0253C252.57 98.8782 251.934 98.9357 251.365 99.1889L235.451 106.896Z" fill="#D9AF00"/>
<path d="M241.159 110.913L238.234 106.304" stroke="white" stroke-width="2" stroke-miterlimit="10" stroke-linecap="round"/>
<path d="M313.975 196.658L309.409 196.55C305.231 196.21 301.312 192.428 303.358 188.172C304.227 186.37 307.165 185.157 309.74 184.047C312.402 182.9 314.801 182.653 317.026 184.507L321.837 187.811C322.642 188.361 323.229 189.174 323.497 190.11L326.233 199.033C326.335 199.367 326.359 199.719 326.302 200.064C326.246 200.408 326.11 200.735 325.906 201.018C325.703 201.302 325.436 201.534 325.128 201.698C324.819 201.861 324.477 201.951 324.129 201.961L315.956 202.147C315.444 202.159 314.94 202.026 314.501 201.764C314.062 201.502 313.706 201.121 313.473 200.666L313.244 200.219C313.179 200.094 313.148 199.955 313.152 199.814C313.157 199.673 313.197 199.536 313.269 199.416C313.341 199.295 313.443 199.194 313.565 199.124C313.686 199.053 313.824 199.014 313.964 199.012V199.012C314.153 199.008 314.339 198.958 314.505 198.867C314.67 198.776 314.812 198.647 314.917 198.49C315.022 198.332 315.088 198.152 315.108 197.964C315.129 197.776 315.104 197.586 315.035 197.41V197.41C314.952 197.194 314.807 197.008 314.618 196.874C314.43 196.74 314.206 196.665 313.975 196.658V196.658Z" fill="#B4702F"/>
<path d="M321.453 195.521L322.708 199.73C322.768 199.929 322.78 200.14 322.744 200.345C322.708 200.55 322.625 200.744 322.501 200.911C322.377 201.078 322.215 201.214 322.029 201.308C321.843 201.401 321.638 201.45 321.43 201.45H320.441L318.073 201.54H318.365C318.573 201.539 318.779 201.491 318.965 201.397C319.151 201.303 319.312 201.168 319.436 201C319.561 200.833 319.644 200.64 319.68 200.434C319.716 200.229 319.704 200.019 319.644 199.819L318.389 195.745" stroke="#56303C" stroke-width="2" stroke-linecap="round" stroke-linejoin="round"/>
<path d="M308.84 192.362L312.878 194.077C313.352 194.279 313.756 194.616 314.041 195.046C314.325 195.475 314.477 195.979 314.477 196.494" stroke="#56303C" stroke-width="2" stroke-miterlimit="10" stroke-linecap="round"/>
<rect x="369" y="152" width="25" height="26" fill="white"/>
<rect x="374" y="156" width="15.4545" height="15.9375" fill="white"/>
<path d="M383.322 161.894H382.928V162.86H383.322V161.894Z" fill="#51323C"/>
<path d="M384.109 161.894H383.716V162.86H384.109V161.894Z" fill="#51323C"/>
<path d="M383.322 163.247H382.928V163.633H383.322V163.247Z" fill="#51323C"/>
<path d="M384.109 163.247H383.716V163.633H384.109V163.247Z" fill="#51323C"/>
<path d="M381.944 164.02H381.55V164.406H381.944V164.02Z" fill="#51323C"/>
<path d="M380.96 167.885H380.566V168.272H380.96V167.885Z" fill="#51323C"/>
<path d="M384.109 164.02H383.716V164.406H384.109V164.02Z" fill="#51323C"/>
<path d="M383.322 164.793H382.928V165.179H383.322V164.793Z" fill="#51323C"/>
<path d="M384.109 164.793H383.716V165.179H384.109V164.793Z" fill="#51323C"/>
<path d="M375.843 157.836H376.434V157.449H375.646C375.538 157.449 375.45 157.536 375.45 157.642V158.415H375.843V157.836Z" fill="#51323C"/>
<path d="M387.849 157.449H387.062V157.835H387.652V158.415H388.046V157.642C388.046 157.535 387.958 157.449 387.849 157.449Z" fill="#51323C"/>
<path d="M375.843 168.851H375.449V169.624C375.449 169.731 375.537 169.818 375.646 169.818H376.433V169.431H375.843V168.851Z" fill="#51323C"/>
<path d="M387.652 169.431H387.062V169.818H387.849C387.958 169.818 388.046 169.731 388.046 169.625V168.852H387.652V169.431Z" fill="#51323C"/>
<path d="M376.236 158.415V160.734C376.236 160.841 376.325 160.928 376.433 160.928H378.795C378.904 160.928 378.992 160.841 378.992 160.734V158.415C378.992 158.309 378.904 158.222 378.795 158.222H376.433C376.325 158.222 376.236 158.309 376.236 158.415ZM376.63 158.608H378.598V160.541H376.63V158.608Z" fill="#51323C"/>
<path d="M378.008 158.995H377.22C377.112 158.995 377.023 159.081 377.023 159.188V159.961C377.023 160.068 377.112 160.154 377.22 160.154H378.008C378.116 160.154 378.204 160.068 378.204 159.961V159.188C378.204 159.081 378.116 158.995 378.008 158.995ZM377.811 159.768H377.417V159.381H377.811V159.768Z" fill="#51323C"/>
<path d="M384.7 160.928H387.062C387.17 160.928 387.258 160.841 387.258 160.734V158.415C387.258 158.309 387.17 158.222 387.062 158.222H384.7C384.591 158.222 384.503 158.309 384.503 158.415V160.734C384.503 160.841 384.591 160.928 384.7 160.928ZM384.896 158.608H386.865V160.541H384.896V158.608Z" fill="#51323C"/>
<path d="M386.274 158.995H385.487C385.378 158.995 385.29 159.081 385.29 159.188V159.961C385.29 160.068 385.378 160.154 385.487 160.154H386.274C386.383 160.154 386.471 160.068 386.471 159.961V159.188C386.471 159.081 386.383 158.995 386.274 158.995ZM386.077 159.768H385.684V159.381H386.077V159.768Z" fill="#51323C"/>
<path d="M378.795 166.339H376.433C376.325 166.339 376.236 166.425 376.236 166.532V168.851C376.236 168.958 376.325 169.045 376.433 169.045H378.795C378.904 169.045 378.992 168.958 378.992 168.851V166.532C378.992 166.425 378.904 166.339 378.795 166.339ZM378.598 168.658H376.63V166.725H378.598V168.658Z" fill="#51323C"/>
<path d="M377.22 168.272H378.008C378.116 168.272 378.204 168.185 378.204 168.079V167.305C378.204 167.199 378.116 167.112 378.008 167.112H377.22C377.112 167.112 377.023 167.199 377.023 167.305V168.079C377.023 168.185 377.112 168.272 377.22 168.272ZM377.417 167.499H377.811V167.885H377.417V167.499Z" fill="#51323C"/>
<path d="M384.109 161.121H382.731V158.802H382.338V161.314C382.338 161.421 382.426 161.508 382.535 161.508H384.109V161.121Z" fill="#51323C"/>
<path d="M381.157 159.768H379.779V160.155H381.157V159.768Z" fill="#51323C"/>
<path d="M381.944 158.995H380.566V159.381H381.944V158.995Z" fill="#51323C"/>
<path d="M376.63 161.121H376.236V162.86H376.63V161.121Z" fill="#51323C"/>
<path d="M378.992 162.281H377.023V162.667H378.795V163.44H379.189V162.474C379.189 162.367 379.1 162.281 378.992 162.281Z" fill="#51323C"/>
<path d="M377.614 161.314H377.22V161.701H377.614V161.314Z" fill="#51323C"/>
<path d="M379.976 160.927H379.582V162.473H379.976V160.927Z" fill="#51323C"/>
<path d="M381.354 162.86H379.582V163.247H381.354V162.86Z" fill="#51323C"/>
<path d="M387.455 163.054H387.062V164.986H386.471V165.373H387.258C387.367 165.373 387.455 165.286 387.455 165.179V163.054Z" fill="#51323C"/>
<path d="M380.96 160.927H380.566V161.314H380.96V160.927Z" fill="#51323C"/>
<path d="M376.63 163.826H376.236V165.372H376.63V163.826Z" fill="#51323C"/>
<path d="M378.008 165.566H376.236V165.953H378.008V165.566Z" fill="#51323C"/>
<path d="M385.29 162.86H385.684V162.087C385.684 161.98 385.596 161.894 385.487 161.894H384.503V162.28H385.29V162.86Z" fill="#51323C"/>
<path d="M377.614 163.826H377.22V164.213H377.614V163.826Z" fill="#51323C"/>
<path d="M379.779 163.633H379.385V165.18H379.779V163.633Z" fill="#51323C"/>
<path d="M381.157 165.566H379.385V165.953H381.157V165.566Z" fill="#51323C"/>
<path d="M378.795 164.793H377.023V165.179H378.795V164.793Z" fill="#51323C"/>
<path d="M379.976 167.499H379.582V168.272H379.976V167.499Z" fill="#51323C"/>
<path d="M381.157 166.725H379.385V167.112H381.157V166.725Z" fill="#51323C"/>
<path d="M382.535 165.952V164.986C382.535 164.879 382.446 164.793 382.338 164.793H380.37V165.179H382.141V165.952H382.535Z" fill="#51323C"/>
<path d="M380.96 163.633H380.566V164.02H380.96V163.633Z" fill="#51323C"/>
<path d="M378.795 164.02H378.401V164.406H378.795V164.02Z" fill="#51323C"/>
<path d="M387.455 167.692H387.062V169.044H387.455V167.692Z" fill="#51323C"/>
<path d="M386.668 168.658H386.078V169.044H386.668V168.658Z" fill="#51323C"/>
<path d="M386.471 167.499H386.078V168.272H386.471V167.499Z" fill="#51323C"/>
<path d="M387.455 165.952C387.455 165.845 387.367 165.759 387.258 165.759H385.093V166.145H387.062V167.305H387.455V165.952Z" fill="#51323C"/>
<path d="M384.896 168.272V167.305C384.896 167.199 384.808 167.112 384.7 167.112H382.535V167.499H384.503V168.272H384.896Z" fill="#51323C"/>
<path d="M386.668 166.532H385.29V166.919H386.668V166.532Z" fill="#51323C"/>
<path d="M380.763 168.658H379.385V169.044H380.763V168.658Z" fill="#51323C"/>
<path d="M381.747 167.305H381.354V169.045H381.747V167.305Z" fill="#51323C"/>
<path d="M382.535 166.339H381.748V166.725H382.535V166.339Z" fill="#51323C"/>
<path d="M384.7 164.406H385.684V164.02H384.896V162.86H384.503V164.213C384.503 164.32 384.591 164.406 384.7 164.406Z" fill="#51323C"/>
<path d="M386.274 163.247H385.29V163.633H386.274V163.247Z" fill="#51323C"/>
<path d="M386.668 161.314H386.078V161.701H386.668V161.314Z" fill="#51323C"/>
<path d="M387.455 161.314H387.062V162.28H387.455V161.314Z" fill="#51323C"/>
<path d="M386.471 162.281H386.078V162.667H386.471V162.281Z" fill="#51323C"/>
<path d="M383.125 160.734H383.912C384.021 160.734 384.109 160.648 384.109 160.541V158.028H383.716V160.348H383.125V160.734Z" fill="#51323C"/>
<path d="M380.173 158.415H383.125V158.028H379.976C379.867 158.028 379.779 158.115 379.779 158.222V159.188H380.173V158.415Z" fill="#51323C"/>
<path d="M380.37 162.087H381.747C381.856 162.087 381.944 162.001 381.944 161.894V160.348H381.55V161.701H380.37V162.087Z" fill="#51323C"/>
<path d="M382.535 161.894H382.141V162.667H382.535V161.894Z" fill="#51323C"/>
<path d="M383.912 167.885H382.535V168.272H383.912V167.885Z" fill="#51323C"/>
<path d="M384.306 168.658H382.535V169.044H384.306V168.658Z" fill="#51323C"/>
<path d="M385.29 168.658H384.896V169.045H385.487C385.595 169.045 385.684 168.958 385.684 168.851V167.305H385.29V168.658Z" fill="#51323C"/>
<path d="M378.992 165.566H378.598V165.953H378.992V165.566Z" fill="#51323C"/>
<path d="M383.912 165.566H383.125V165.953H383.912V165.566Z" fill="#51323C"/>
<path d="M384.896 164.793H384.503V165.373H384.896V164.793Z" fill="#51323C"/>
<path d="M384.7 165.759H384.306V166.145H384.7V165.759Z" fill="#51323C"/>
<path d="M383.716 166.339H383.125V166.725H383.716V166.339Z" fill="#51323C"/>
<path d="M385.684 164.793H385.29V165.179H385.684V164.793Z" fill="#51323C"/>
<path d="M386.668 164.02H386.078V164.406H386.668V164.02Z" fill="#51323C"/>
<path d="M383.322 164.02H382.338V164.406H383.322V164.02Z" fill="#51323C"/>
<path d="M382.535 163.054H382.141V163.633H382.535V163.054Z" fill="#51323C"/>
<rect x="421" y="138" width="13.2424" height="13.6562" fill="white"/>
<path d="M428.987 143.05H428.65V143.878H428.987V143.05Z" fill="#51323C"/>
<path d="M429.662 143.05H429.325V143.878H429.662V143.05Z" fill="#51323C"/>
<path d="M428.987 144.209H428.65V144.541H428.987V144.209Z" fill="#51323C"/>
<path d="M429.662 144.209H429.325V144.541H429.662V144.209Z" fill="#51323C"/>
<path d="M427.807 144.872H427.47V145.203H427.807V144.872Z" fill="#51323C"/>
<path d="M426.964 148.184H426.626V148.515H426.964V148.184Z" fill="#51323C"/>
<path d="M429.662 144.872H429.325V145.203H429.662V144.872Z" fill="#51323C"/>
<path d="M428.987 145.534H428.65V145.865H428.987V145.534Z" fill="#51323C"/>
<path d="M429.662 145.534H429.325V145.865H429.662V145.534Z" fill="#51323C"/>
<path d="M422.579 139.573H423.085V139.242H422.411C422.318 139.242 422.242 139.316 422.242 139.407V140.07H422.579V139.573Z" fill="#51323C"/>
<path d="M432.867 139.241H432.192V139.573H432.698V140.069H433.035V139.407C433.035 139.316 432.96 139.241 432.867 139.241Z" fill="#51323C"/>
<path d="M422.579 149.012H422.241V149.674C422.241 149.766 422.317 149.84 422.41 149.84H423.085V149.509H422.579V149.012Z" fill="#51323C"/>
<path d="M432.698 149.509H432.192V149.84H432.867C432.96 149.84 433.035 149.766 433.035 149.674V149.012H432.698V149.509Z" fill="#51323C"/>
<path d="M422.916 140.07V142.057C422.916 142.148 422.992 142.222 423.085 142.222H425.109C425.202 142.222 425.277 142.148 425.277 142.057V140.07C425.277 139.978 425.202 139.904 425.109 139.904H423.085C422.992 139.904 422.916 139.978 422.916 140.07ZM423.253 140.235H424.94V141.891H423.253V140.235Z" fill="#51323C"/>
<path d="M424.434 140.566H423.759C423.666 140.566 423.591 140.64 423.591 140.732V141.394C423.591 141.485 423.666 141.56 423.759 141.56H424.434C424.527 141.56 424.602 141.485 424.602 141.394V140.732C424.602 140.64 424.527 140.566 424.434 140.566ZM424.265 141.228H423.928V140.897H424.265V141.228Z" fill="#51323C"/>
<path d="M430.168 142.222H432.192C432.285 142.222 432.361 142.148 432.361 142.057V140.07C432.361 139.978 432.285 139.904 432.192 139.904H430.168C430.075 139.904 430 139.978 430 140.07V142.057C430 142.148 430.075 142.222 430.168 142.222ZM430.337 140.235H432.023V141.891H430.337V140.235Z" fill="#51323C"/>
<path d="M431.517 140.566H430.843C430.75 140.566 430.674 140.64 430.674 140.732V141.394C430.674 141.485 430.75 141.56 430.843 141.56H431.517C431.61 141.56 431.686 141.485 431.686 141.394V140.732C431.686 140.64 431.61 140.566 431.517 140.566ZM431.349 141.228H431.011V140.897H431.349V141.228Z" fill="#51323C"/>
<path d="M425.109 146.859H423.085C422.992 146.859 422.916 146.933 422.916 147.025V149.012C422.916 149.103 422.992 149.177 423.085 149.177H425.109C425.202 149.177 425.277 149.103 425.277 149.012V147.025C425.277 146.933 425.202 146.859 425.109 146.859ZM424.94 148.846H423.253V147.19H424.94V148.846Z" fill="#51323C"/>
<path d="M423.759 148.515H424.434C424.527 148.515 424.602 148.441 424.602 148.349V147.687C424.602 147.596 424.527 147.521 424.434 147.521H423.759C423.666 147.521 423.591 147.596 423.591 147.687V148.349C423.591 148.441 423.666 148.515 423.759 148.515ZM423.928 147.853H424.265V148.184H423.928V147.853Z" fill="#51323C"/>
<path d="M429.662 142.388H428.482V140.401H428.144V142.554C428.144 142.645 428.22 142.719 428.313 142.719H429.662V142.388Z" fill="#51323C"/>
<path d="M427.133 141.229H425.952V141.56H427.133V141.229Z" fill="#51323C"/>
<path d="M427.807 140.566H426.626V140.897H427.807V140.566Z" fill="#51323C"/>
<path d="M423.253 142.388H422.916V143.878H423.253V142.388Z" fill="#51323C"/>
<path d="M425.277 143.381H423.591V143.713H425.108V144.375H425.446V143.547C425.446 143.456 425.37 143.381 425.277 143.381Z" fill="#51323C"/>
<path d="M424.097 142.554H423.76V142.885H424.097V142.554Z" fill="#51323C"/>
<path d="M426.12 142.222H425.783V143.547H426.12V142.222Z" fill="#51323C"/>
<path d="M427.301 143.878H425.783V144.209H427.301V143.878Z" fill="#51323C"/>
<path d="M432.529 144.044H432.192V145.7H431.686V146.031H432.361C432.454 146.031 432.529 145.957 432.529 145.866V144.044Z" fill="#51323C"/>
<path d="M426.964 142.222H426.626V142.553H426.964V142.222Z" fill="#51323C"/>
<path d="M423.253 144.706H422.916V146.031H423.253V144.706Z" fill="#51323C"/>
<path d="M424.434 146.197H422.916V146.528H424.434V146.197Z" fill="#51323C"/>
<path d="M430.674 143.878H431.011V143.216C431.011 143.124 430.936 143.05 430.843 143.05H430V143.381H430.674V143.878Z" fill="#51323C"/>
<path d="M424.097 144.706H423.76V145.037H424.097V144.706Z" fill="#51323C"/>
<path d="M425.952 144.541H425.615V145.866H425.952V144.541Z" fill="#51323C"/>
<path d="M427.132 146.197H425.615V146.528H427.132V146.197Z" fill="#51323C"/>
<path d="M425.108 145.534H423.591V145.865H425.108V145.534Z" fill="#51323C"/>
<path d="M426.12 147.853H425.783V148.515H426.12V147.853Z" fill="#51323C"/>
<path d="M427.132 147.19H425.615V147.521H427.132V147.19Z" fill="#51323C"/>
<path d="M428.313 146.528V145.7C428.313 145.608 428.237 145.534 428.144 145.534H426.458V145.865H427.976V146.528H428.313Z" fill="#51323C"/>
<path d="M426.964 144.541H426.626V144.872H426.964V144.541Z" fill="#51323C"/>
<path d="M425.109 144.872H424.771V145.203H425.109V144.872Z" fill="#51323C"/>
<path d="M432.529 148.018H432.192V149.177H432.529V148.018Z" fill="#51323C"/>
<path d="M431.855 148.846H431.349V149.177H431.855V148.846Z" fill="#51323C"/>
<path d="M431.686 147.853H431.349V148.515H431.686V147.853Z" fill="#51323C"/>
<path d="M432.529 146.528C432.529 146.436 432.454 146.362 432.361 146.362H430.505V146.693H432.192V147.687H432.529V146.528Z" fill="#51323C"/>
<path d="M430.337 148.515V147.687C430.337 147.596 430.261 147.521 430.168 147.521H428.313V147.853H429.999V148.515H430.337Z" fill="#51323C"/>
<path d="M431.855 147.025H430.674V147.356H431.855V147.025Z" fill="#51323C"/>
<path d="M426.795 148.846H425.615V149.177H426.795V148.846Z" fill="#51323C"/>
<path d="M427.638 147.687H427.301V149.177H427.638V147.687Z" fill="#51323C"/>
<path d="M428.313 146.859H427.639V147.19H428.313V146.859Z" fill="#51323C"/>
<path d="M430.168 145.203H431.011V144.872H430.337V143.878H430V145.037C430 145.129 430.075 145.203 430.168 145.203Z" fill="#51323C"/>
<path d="M431.517 144.209H430.674V144.541H431.517V144.209Z" fill="#51323C"/>
<path d="M431.855 142.554H431.349V142.885H431.855V142.554Z" fill="#51323C"/>
<path d="M432.529 142.554H432.192V143.382H432.529V142.554Z" fill="#51323C"/>
<path d="M431.686 143.381H431.349V143.713H431.686V143.381Z" fill="#51323C"/>
<path d="M428.819 142.056H429.494C429.587 142.056 429.662 141.982 429.662 141.891V139.738H429.325V141.725H428.819V142.056Z" fill="#51323C"/>
<path d="M426.289 140.069H428.819V139.738H426.121C426.028 139.738 425.952 139.812 425.952 139.904V140.732H426.289V140.069Z" fill="#51323C"/>
<path d="M426.458 143.216H427.638C427.731 143.216 427.807 143.142 427.807 143.05V141.725H427.47V142.885H426.458V143.216Z" fill="#51323C"/>
<path d="M428.313 143.05H427.976V143.713H428.313V143.05Z" fill="#51323C"/>
<path d="M429.493 148.184H428.313V148.515H429.493V148.184Z" fill="#51323C"/>
<path d="M429.831 148.846H428.313V149.177H429.831V148.846Z" fill="#51323C"/>
<path d="M430.674 148.846H430.337V149.177H430.843C430.936 149.177 431.011 149.103 431.011 149.012V147.687H430.674V148.846Z" fill="#51323C"/>
<path d="M425.277 146.197H424.94V146.528H425.277V146.197Z" fill="#51323C"/>
<path d="M429.494 146.197H428.819V146.528H429.494V146.197Z" fill="#51323C"/>
<path d="M430.337 145.534H430V146.031H430.337V145.534Z" fill="#51323C"/>
<path d="M430.168 146.362H429.831V146.693H430.168V146.362Z" fill="#51323C"/>
<path d="M429.325 146.859H428.819V147.19H429.325V146.859Z" fill="#51323C"/>
<path d="M431.011 145.534H430.674V145.865H431.011V145.534Z" fill="#51323C"/>
<path d="M431.855 144.872H431.349V145.203H431.855V144.872Z" fill="#51323C"/>
<path d="M428.988 144.872H428.144V145.203H428.988V144.872Z" fill="#51323C"/>
<path d="M428.313 144.044H427.976V144.541H428.313V144.044Z" fill="#51323C"/>
<rect x="489.461" y="110" width="11.6256" height="11.9889" transform="rotate(7 489.461 110)" fill="white"/>
<path d="M495.881 115.255L495.587 115.219L495.498 115.941L495.792 115.977L495.881 115.255Z" fill="#51323C"/>
<path d="M496.469 115.327L496.175 115.291L496.086 116.013L496.38 116.049L496.469 115.327Z" fill="#51323C"/>
<path d="M495.757 116.265L495.463 116.229L495.427 116.518L495.721 116.554L495.757 116.265Z" fill="#51323C"/>
<path d="M496.345 116.338L496.051 116.302L496.015 116.59L496.309 116.626L496.345 116.338Z" fill="#51323C"/>
<path d="M494.657 116.716L494.363 116.68L494.328 116.969L494.622 117.005L494.657 116.716Z" fill="#51323C"/>
<path d="M493.568 119.512L493.274 119.476L493.239 119.765L493.533 119.801L493.568 119.512Z" fill="#51323C"/>
<path d="M496.274 116.915L495.98 116.879L495.944 117.167L496.238 117.203L496.274 116.915Z" fill="#51323C"/>
<path d="M495.615 117.42L495.321 117.384L495.286 117.672L495.58 117.708L495.615 117.42Z" fill="#51323C"/>
<path d="M496.203 117.492L495.909 117.456L495.874 117.744L496.168 117.78L496.203 117.492Z" fill="#51323C"/>
<path d="M490.669 111.539L491.11 111.594L491.145 111.305L490.557 111.233C490.476 111.223 490.403 111.279 490.393 111.359L490.322 111.936L490.616 111.972L490.669 111.539Z" fill="#51323C"/>
<path d="M499.668 112.352L499.08 112.279L499.045 112.568L499.486 112.622L499.433 113.055L499.727 113.091L499.798 112.514C499.807 112.434 499.749 112.362 499.668 112.352Z" fill="#51323C"/>
<path d="M489.659 119.764L489.365 119.728L489.294 120.305C489.284 120.385 489.342 120.458 489.423 120.468L490.011 120.54L490.046 120.251L489.606 120.197L489.659 119.764Z" fill="#51323C"/>
<path d="M498.423 121.28L497.982 121.226L497.947 121.514L498.535 121.587C498.616 121.597 498.689 121.54 498.699 121.46L498.77 120.883L498.476 120.847L498.423 121.28Z" fill="#51323C"/>
<path d="M490.909 112.008L490.697 113.74C490.687 113.82 490.745 113.892 490.826 113.902L492.589 114.119C492.671 114.129 492.744 114.072 492.754 113.993L492.967 112.261C492.976 112.181 492.919 112.109 492.837 112.099L491.074 111.882C490.993 111.872 490.919 111.929 490.909 112.008ZM491.185 112.189L492.655 112.369L492.478 113.812L491.008 113.632L491.185 112.189Z" fill="#51323C"/>
<path d="M492.179 112.604L491.591 112.531C491.51 112.521 491.436 112.578 491.426 112.658L491.355 113.235C491.345 113.314 491.403 113.387 491.484 113.397L492.072 113.469C492.153 113.479 492.227 113.423 492.237 113.343L492.308 112.766C492.318 112.686 492.26 112.613 492.179 112.604ZM491.961 113.163L491.667 113.127L491.702 112.838L491.996 112.874L491.961 113.163Z" fill="#51323C"/>
<path d="M496.998 114.66L498.762 114.877C498.843 114.887 498.917 114.83 498.926 114.751L499.139 113.019C499.149 112.939 499.091 112.867 499.01 112.857L497.246 112.64C497.165 112.63 497.091 112.687 497.082 112.766L496.869 114.498C496.859 114.578 496.917 114.65 496.998 114.66ZM497.358 112.947L498.827 113.127L498.65 114.57L497.181 114.39L497.358 112.947Z" fill="#51323C"/>
<path d="M498.351 113.361L497.763 113.289C497.682 113.279 497.608 113.336 497.598 113.415L497.528 113.993C497.518 114.072 497.576 114.145 497.657 114.155L498.245 114.227C498.326 114.237 498.399 114.181 498.409 114.101L498.48 113.524C498.49 113.444 498.432 113.371 498.351 113.361ZM498.133 113.92L497.839 113.884L497.875 113.596L498.168 113.632L498.133 113.92Z" fill="#51323C"/>
<path d="M492.093 118.159L490.33 117.943C490.249 117.933 490.175 117.989 490.165 118.069L489.953 119.8C489.943 119.88 490.001 119.953 490.082 119.963L491.845 120.179C491.926 120.189 492 120.133 492.01 120.053L492.223 118.321C492.232 118.242 492.175 118.169 492.093 118.159ZM491.734 119.873L490.264 119.692L490.441 118.249L491.911 118.43L491.734 119.873Z" fill="#51323C"/>
<path d="M490.74 119.458L491.328 119.53C491.409 119.54 491.483 119.483 491.493 119.404L491.564 118.827C491.574 118.747 491.516 118.674 491.434 118.664L490.847 118.592C490.766 118.582 490.692 118.639 490.682 118.718L490.611 119.295C490.601 119.375 490.659 119.448 490.74 119.458ZM490.958 118.899L491.252 118.935L491.217 119.223L490.923 119.187L490.958 118.899Z" fill="#51323C"/>
<path d="M496.539 114.751L495.511 114.624L495.723 112.893L495.429 112.857L495.199 114.732C495.189 114.812 495.247 114.885 495.328 114.895L496.504 115.039L496.539 114.751Z" fill="#51323C"/>
<path d="M494.459 113.47L493.431 113.344L493.395 113.632L494.424 113.758L494.459 113.47Z" fill="#51323C"/>
<path d="M495.118 112.964L494.089 112.838L494.054 113.127L495.082 113.253L495.118 112.964Z" fill="#51323C"/>
<path d="M490.955 114.065L490.661 114.029L490.502 115.327L490.796 115.363L490.955 114.065Z" fill="#51323C"/>
<path d="M492.612 115.147L491.143 114.967L491.107 115.255L492.43 115.418L492.359 115.995L492.653 116.031L492.742 115.309C492.751 115.23 492.693 115.157 492.612 115.147Z" fill="#51323C"/>
<path d="M491.672 114.299L491.378 114.263L491.343 114.552L491.637 114.588L491.672 114.299Z" fill="#51323C"/>
<path d="M493.471 114.227L493.177 114.191L493.035 115.345L493.329 115.381L493.471 114.227Z" fill="#51323C"/>
<path d="M494.323 115.796L493 115.634L492.965 115.922L494.287 116.085L494.323 115.796Z" fill="#51323C"/>
<path d="M498.861 116.5L498.567 116.464L498.389 117.907L497.949 117.853L497.913 118.141L498.501 118.214C498.582 118.224 498.656 118.167 498.666 118.087L498.861 116.5Z" fill="#51323C"/>
<path d="M494.206 114.317L493.912 114.281L493.876 114.57L494.17 114.606L494.206 114.317Z" fill="#51323C"/>
<path d="M490.707 116.085L490.413 116.049L490.272 117.203L490.566 117.239L490.707 116.085Z" fill="#51323C"/>
<path d="M491.576 117.51L490.254 117.348L490.218 117.636L491.541 117.799L491.576 117.51Z" fill="#51323C"/>
<path d="M497.262 116.157L497.556 116.193L497.627 115.616C497.636 115.536 497.578 115.464 497.497 115.454L496.763 115.363L496.727 115.652L497.315 115.724L497.262 116.157Z" fill="#51323C"/>
<path d="M491.442 116.175L491.148 116.139L491.113 116.427L491.406 116.463L491.442 116.175Z" fill="#51323C"/>
<path d="M493.076 116.229L492.782 116.193L492.64 117.348L492.934 117.384L493.076 116.229Z" fill="#51323C"/>
<path d="M493.928 117.799L492.605 117.636L492.57 117.925L493.892 118.087L493.928 117.799Z" fill="#51323C"/>
<path d="M492.235 117.005L490.912 116.842L490.877 117.131L492.2 117.293L492.235 117.005Z" fill="#51323C"/>
<path d="M492.869 119.134L492.575 119.097L492.504 119.675L492.798 119.711L492.869 119.134Z" fill="#51323C"/>
<path d="M493.821 118.664L492.499 118.502L492.463 118.79L493.786 118.953L493.821 118.664Z" fill="#51323C"/>
<path d="M494.921 118.213L495.009 117.492C495.019 117.412 494.961 117.339 494.88 117.329L493.411 117.149L493.375 117.438L494.698 117.6L494.627 118.177L494.921 118.213Z" fill="#51323C"/>
<path d="M493.958 116.338L493.664 116.302L493.628 116.59L493.922 116.626L493.958 116.338Z" fill="#51323C"/>
<path d="M492.306 116.428L492.012 116.392L491.977 116.68L492.27 116.716L492.306 116.428Z" fill="#51323C"/>
<path d="M498.435 119.963L498.141 119.927L498.017 120.937L498.311 120.973L498.435 119.963Z" fill="#51323C"/>
<path d="M497.759 120.612L497.318 120.558L497.283 120.847L497.724 120.901L497.759 120.612Z" fill="#51323C"/>
<path d="M497.718 119.729L497.424 119.693L497.353 120.27L497.647 120.306L497.718 119.729Z" fill="#51323C"/>
<path d="M498.595 118.664C498.605 118.585 498.547 118.512 498.466 118.502L496.849 118.303L496.814 118.592L498.283 118.773L498.177 119.638L498.471 119.674L498.595 118.664Z" fill="#51323C"/>
<path d="M496.472 120.162L496.56 119.44C496.57 119.36 496.512 119.288 496.431 119.278L494.815 119.079L494.779 119.368L496.249 119.548L496.178 120.125L496.472 120.162Z" fill="#51323C"/>
<path d="M497.954 119.025L496.925 118.899L496.89 119.188L497.918 119.314L497.954 119.025Z" fill="#51323C"/>
<path d="M493.35 120.071L492.321 119.945L492.286 120.233L493.315 120.36L493.35 120.071Z" fill="#51323C"/>
<path d="M494.209 119.151L493.915 119.115L493.756 120.414L494.05 120.45L494.209 119.151Z" fill="#51323C"/>
<path d="M494.886 118.502L494.298 118.43L494.262 118.718L494.85 118.791L494.886 118.502Z" fill="#51323C"/>
<path d="M496.679 117.257L497.414 117.348L497.449 117.059L496.862 116.987L496.968 116.121L496.674 116.085L496.55 117.095C496.54 117.175 496.598 117.247 496.679 117.257Z" fill="#51323C"/>
<path d="M497.961 116.536L497.226 116.446L497.191 116.735L497.926 116.825L497.961 116.536Z" fill="#51323C"/>
<path d="M498.432 115.129L497.991 115.075L497.956 115.364L498.397 115.418L498.432 115.129Z" fill="#51323C"/>
<path d="M499.02 115.201L498.726 115.165L498.638 115.887L498.932 115.923L499.02 115.201Z" fill="#51323C"/>
<path d="M498.197 115.833L497.903 115.797L497.867 116.085L498.161 116.121L498.197 115.833Z" fill="#51323C"/>
<path d="M495.84 114.371L496.428 114.444C496.509 114.453 496.583 114.397 496.593 114.317L496.823 112.441L496.529 112.405L496.317 114.137L495.876 114.083L495.84 114.371Z" fill="#51323C"/>
<path d="M493.848 112.369L496.053 112.64L496.088 112.351L493.737 112.062C493.656 112.053 493.582 112.109 493.572 112.189L493.484 112.91L493.778 112.946L493.848 112.369Z" fill="#51323C"/>
<path d="M493.659 115.129L494.687 115.255C494.768 115.265 494.842 115.209 494.852 115.129L494.994 113.975L494.7 113.939L494.576 114.949L493.694 114.84L493.659 115.129Z" fill="#51323C"/>
<path d="M495.293 115.183L494.999 115.147L494.928 115.724L495.222 115.76L495.293 115.183Z" fill="#51323C"/>
<path d="M495.772 119.783L494.744 119.656L494.708 119.945L495.737 120.071L495.772 119.783Z" fill="#51323C"/>
<path d="M495.995 120.396L494.673 120.233L494.637 120.522L495.96 120.684L495.995 120.396Z" fill="#51323C"/>
<path d="M496.73 120.486L496.436 120.45L496.401 120.739L496.842 120.793C496.923 120.803 496.996 120.746 497.006 120.667L497.148 119.512L496.854 119.476L496.73 120.486Z" fill="#51323C"/>
<path d="M492.311 117.6L492.017 117.564L491.982 117.853L492.276 117.889L492.311 117.6Z" fill="#51323C"/>
<path d="M495.985 118.051L495.397 117.979L495.362 118.268L495.95 118.34L495.985 118.051Z" fill="#51323C"/>
<path d="M496.791 117.564L496.497 117.528L496.444 117.961L496.737 117.997L496.791 117.564Z" fill="#51323C"/>
<path d="M496.555 118.267L496.261 118.231L496.226 118.52L496.52 118.556L496.555 118.267Z" fill="#51323C"/>
<path d="M495.767 118.61L495.326 118.556L495.291 118.845L495.732 118.899L495.767 118.61Z" fill="#51323C"/>
<path d="M497.378 117.636L497.084 117.6L497.049 117.889L497.343 117.925L497.378 117.636Z" fill="#51323C"/>
<path d="M498.184 117.149L497.743 117.095L497.708 117.384L498.149 117.438L498.184 117.149Z" fill="#51323C"/>
<path d="M495.686 116.843L494.951 116.752L494.916 117.041L495.65 117.131L495.686 116.843Z" fill="#51323C"/>
<path d="M495.187 116.049L494.893 116.013L494.84 116.446L495.134 116.482L495.187 116.049Z" fill="#51323C"/>
<rect x="539" y="246" width="11.6364" height="12" fill="white"/>
<path d="M546.019 250.438H545.722V251.165H546.019V250.438Z" fill="#51323C"/>
<path d="M546.612 250.438H546.315V251.165H546.612V250.438Z" fill="#51323C"/>
<path d="M546.019 251.456H545.722V251.747H546.019V251.456Z" fill="#51323C"/>
<path d="M546.612 251.456H546.315V251.747H546.612V251.456Z" fill="#51323C"/>
<path d="M544.981 252.038H544.685V252.329H544.981V252.038Z" fill="#51323C"/>
<path d="M544.24 254.949H543.944V255.24H544.24V254.949Z" fill="#51323C"/>
<path d="M546.612 252.038H546.315V252.329H546.612V252.038Z" fill="#51323C"/>
<path d="M546.019 252.62H545.722V252.911H546.019V252.62Z" fill="#51323C"/>
<path d="M546.612 252.62H546.315V252.911H546.612V252.62Z" fill="#51323C"/>
<path d="M540.388 247.382H540.833V247.091H540.24C540.158 247.091 540.092 247.156 540.092 247.237V247.819H540.388V247.382Z" fill="#51323C"/>
<path d="M549.427 247.091H548.835V247.382H549.279V247.819H549.576V247.236C549.576 247.156 549.509 247.091 549.427 247.091Z" fill="#51323C"/>
<path d="M540.387 255.676H540.091V256.258C540.091 256.339 540.157 256.404 540.239 256.404H540.832V256.113H540.387V255.676Z" fill="#51323C"/>
<path d="M549.279 256.113H548.835V256.404H549.427C549.509 256.404 549.576 256.339 549.576 256.258V255.676H549.279V256.113Z" fill="#51323C"/>
<path d="M540.684 247.818V249.565C540.684 249.645 540.75 249.71 540.832 249.71H542.61C542.692 249.71 542.759 249.645 542.759 249.565V247.818C542.759 247.738 542.692 247.673 542.61 247.673H540.832C540.75 247.673 540.684 247.738 540.684 247.818ZM540.98 247.964H542.462V249.419H540.98V247.964Z" fill="#51323C"/>
<path d="M542.017 248.255H541.425C541.343 248.255 541.276 248.32 541.276 248.4V248.982C541.276 249.063 541.343 249.128 541.425 249.128H542.017C542.099 249.128 542.166 249.063 542.166 248.982V248.4C542.166 248.32 542.099 248.255 542.017 248.255ZM541.869 248.837H541.573V248.546H541.869V248.837Z" fill="#51323C"/>
<path d="M547.056 249.71H548.835C548.916 249.71 548.983 249.645 548.983 249.565V247.818C548.983 247.738 548.916 247.673 548.835 247.673H547.056C546.974 247.673 546.908 247.738 546.908 247.818V249.565C546.908 249.645 546.974 249.71 547.056 249.71ZM547.204 247.964H548.686V249.419H547.204V247.964Z" fill="#51323C"/>
<path d="M548.242 248.255H547.649C547.567 248.255 547.501 248.32 547.501 248.4V248.982C547.501 249.063 547.567 249.128 547.649 249.128H548.242C548.324 249.128 548.39 249.063 548.39 248.982V248.4C548.39 248.32 548.324 248.255 548.242 248.255ZM548.094 248.837H547.797V248.546H548.094V248.837Z" fill="#51323C"/>
<path d="M542.61 253.785H540.832C540.75 253.785 540.684 253.85 540.684 253.93V255.676C540.684 255.757 540.75 255.822 540.832 255.822H542.61C542.692 255.822 542.759 255.757 542.759 255.676V253.93C542.759 253.85 542.692 253.785 542.61 253.785ZM542.462 255.531H540.98V254.076H542.462V255.531Z" fill="#51323C"/>
<path d="M541.425 255.24H542.017C542.099 255.24 542.166 255.175 542.166 255.094V254.512C542.166 254.432 542.099 254.367 542.017 254.367H541.425C541.343 254.367 541.276 254.432 541.276 254.512V255.094C541.276 255.175 541.343 255.24 541.425 255.24ZM541.573 254.658H541.869V254.949H541.573V254.658Z" fill="#51323C"/>
<path d="M546.612 249.856H545.574V248.11H545.278V250.001C545.278 250.082 545.344 250.147 545.426 250.147H546.612V249.856Z" fill="#51323C"/>
<path d="M544.389 248.837H543.351V249.128H544.389V248.837Z" fill="#51323C"/>
<path d="M544.981 248.255H543.944V248.546H544.981V248.255Z" fill="#51323C"/>
<path d="M540.98 249.856H540.684V251.165H540.98V249.856Z" fill="#51323C"/>
<path d="M542.758 250.729H541.276V251.02H542.61V251.602H542.907V250.874C542.907 250.794 542.84 250.729 542.758 250.729Z" fill="#51323C"/>
<path d="M541.721 250.001H541.425V250.292H541.721V250.001Z" fill="#51323C"/>
<path d="M543.499 249.71H543.203V250.874H543.499V249.71Z" fill="#51323C"/>
<path d="M544.537 251.165H543.203V251.456H544.537V251.165Z" fill="#51323C"/>
<path d="M549.131 251.311H548.835V252.766H548.39V253.057H548.983C549.065 253.057 549.131 252.992 549.131 252.912V251.311Z" fill="#51323C"/>
<path d="M544.24 249.71H543.944V250.001H544.24V249.71Z" fill="#51323C"/>
<path d="M540.98 251.893H540.684V253.057H540.98V251.893Z" fill="#51323C"/>
<path d="M542.018 253.203H540.684V253.494H542.018V253.203Z" fill="#51323C"/>
<path d="M547.501 251.165H547.797V250.583C547.797 250.503 547.731 250.438 547.649 250.438H546.908V250.729H547.501V251.165Z" fill="#51323C"/>
<path d="M541.721 251.893H541.425V252.184H541.721V251.893Z" fill="#51323C"/>
<path d="M543.351 251.748H543.055V252.912H543.351V251.748Z" fill="#51323C"/>
<path d="M544.389 253.203H543.055V253.494H544.389V253.203Z" fill="#51323C"/>
<path d="M542.61 252.62H541.276V252.911H542.61V252.62Z" fill="#51323C"/>
<path d="M543.499 254.658H543.203V255.24H543.499V254.658Z" fill="#51323C"/>
<path d="M544.389 254.076H543.055V254.367H544.389V254.076Z" fill="#51323C"/>
<path d="M545.426 253.493V252.766C545.426 252.686 545.36 252.62 545.278 252.62H543.796V252.911H545.13V253.493H545.426Z" fill="#51323C"/>
<path d="M544.24 251.748H543.944V252.039H544.24V251.748Z" fill="#51323C"/>
<path d="M542.61 252.038H542.314V252.329H542.61V252.038Z" fill="#51323C"/>
<path d="M549.131 254.803H548.835V255.822H549.131V254.803Z" fill="#51323C"/>
<path d="M548.538 255.531H548.094V255.822H548.538V255.531Z" fill="#51323C"/>
<path d="M548.39 254.658H548.094V255.24H548.39V254.658Z" fill="#51323C"/>
<path d="M549.131 253.493C549.131 253.413 549.065 253.348 548.983 253.348H547.353V253.639H548.835V254.512H549.131V253.493Z" fill="#51323C"/>
<path d="M547.204 255.24V254.512C547.204 254.432 547.138 254.367 547.056 254.367H545.426V254.658H546.908V255.24H547.204Z" fill="#51323C"/>
<path d="M548.538 253.93H547.501V254.221H548.538V253.93Z" fill="#51323C"/>
<path d="M544.092 255.531H543.055V255.822H544.092V255.531Z" fill="#51323C"/>
<path d="M544.833 254.512H544.537V255.822H544.833V254.512Z" fill="#51323C"/>
<path d="M545.426 253.785H544.833V254.076H545.426V253.785Z" fill="#51323C"/>
<path d="M547.056 252.329H547.797V252.038H547.204V251.165H546.908V252.184C546.908 252.264 546.974 252.329 547.056 252.329Z" fill="#51323C"/>
<path d="M548.242 251.456H547.501V251.747H548.242V251.456Z" fill="#51323C"/>
<path d="M548.538 250.001H548.094V250.292H548.538V250.001Z" fill="#51323C"/>
<path d="M549.131 250.001H548.835V250.729H549.131V250.001Z" fill="#51323C"/>
<path d="M548.39 250.729H548.094V251.02H548.39V250.729Z" fill="#51323C"/>
<path d="M545.871 249.564H546.464C546.545 249.564 546.612 249.499 546.612 249.419V247.527H546.315V249.273H545.871V249.564Z" fill="#51323C"/>
<path d="M543.648 247.818H545.871V247.527H543.5C543.418 247.527 543.351 247.592 543.351 247.673V248.4H543.648V247.818Z" fill="#51323C"/>
<path d="M543.796 250.583H544.833C544.915 250.583 544.981 250.518 544.981 250.438V249.274H544.685V250.292H543.796V250.583Z" fill="#51323C"/>
<path d="M545.426 250.438H545.13V251.02H545.426V250.438Z" fill="#51323C"/>
<path d="M546.463 254.949H545.426V255.24H546.463V254.949Z" fill="#51323C"/>
<path d="M546.76 255.531H545.426V255.822H546.76V255.531Z" fill="#51323C"/>
<path d="M547.501 255.531H547.204V255.822H547.649C547.731 255.822 547.797 255.757 547.797 255.676V254.512H547.501V255.531Z" fill="#51323C"/>
<path d="M542.758 253.203H542.462V253.494H542.758V253.203Z" fill="#51323C"/>
<path d="M546.464 253.203H545.871V253.494H546.464V253.203Z" fill="#51323C"/>
<path d="M547.204 252.62H546.908V253.057H547.204V252.62Z" fill="#51323C"/>
<path d="M547.056 253.348H546.76V253.639H547.056V253.348Z" fill="#51323C"/>
<path d="M546.315 253.785H545.871V254.076H546.315V253.785Z" fill="#51323C"/>
<path d="M547.797 252.62H547.501V252.911H547.797V252.62Z" fill="#51323C"/>
<path d="M548.538 252.038H548.094V252.329H548.538V252.038Z" fill="#51323C"/>
<path d="M546.019 252.038H545.278V252.329H546.019V252.038Z" fill="#51323C"/>
<path d="M545.426 251.311H545.13V251.747H545.426V251.311Z" fill="#51323C"/>
</svg>
