<svg width="954" height="227" viewBox="0 0 954 227" fill="none" xmlns="http://www.w3.org/2000/svg">
<circle cx="98" cy="113" r="96.5" stroke="#F5EFD9" stroke-width="3"/>
<ellipse cx="98" cy="113" rx="68" ry="66" fill="#F5EFD9"/>
<circle cx="477" cy="113" r="96.5" stroke="#F5EFD9" stroke-width="3"/>
<ellipse cx="477" cy="113" rx="68" ry="66" fill="#F5EFD9"/>
<circle cx="856" cy="113" r="96.5" stroke="#F5EFD9" stroke-width="3"/>
<ellipse cx="856" cy="113" rx="68" ry="66" fill="#F5EFD9"/>
<g clip-path="url(#clip0_31:9359)">
<path d="M879.333 85H867.667C866.429 85 865.242 85.5004 864.367 86.3912C863.492 87.282 863 88.4902 863 89.75V106.251C863.001 107.168 863.256 108.066 863.736 108.842C864.216 109.617 864.902 110.239 865.714 110.636C866.525 111.033 867.431 111.189 868.326 111.085C869.221 110.982 870.069 110.624 870.772 110.052L873.5 107.831L876.228 110.054C876.932 110.626 877.78 110.985 878.675 111.088C879.57 111.191 880.476 111.035 881.287 110.638C882.099 110.241 882.785 109.619 883.265 108.843C883.744 108.067 883.999 107.168 884 106.251V89.75C884 88.4902 883.508 87.282 882.633 86.3912C881.758 85.5004 880.571 85 879.333 85V85ZM879.144 106.344L874.958 102.936C874.544 102.599 874.03 102.415 873.5 102.415C872.97 102.415 872.456 102.599 872.042 102.936L867.667 106.251V89.75H879.333L879.144 106.344ZM884 118.25V130.125C883.996 133.273 882.766 136.292 880.579 138.518C878.392 140.744 875.426 141.996 872.333 142H839.667C836.574 141.996 833.608 140.744 831.421 138.518C829.234 136.292 828.004 133.273 828 130.125V104C828.004 100.852 829.234 97.8334 831.421 95.6073C833.608 93.3811 836.574 92.1288 839.667 92.125H856C856.619 92.125 857.212 92.3752 857.65 92.8206C858.087 93.266 858.333 93.8701 858.333 94.5C858.333 95.1299 858.087 95.734 857.65 96.1794C857.212 96.6248 856.619 96.875 856 96.875H839.667C838.398 96.8786 837.154 97.2343 836.069 97.9039C834.984 98.5734 834.099 99.5315 833.509 100.675L851.049 118.53C852.383 119.825 854.156 120.547 855.999 120.547C857.842 120.547 859.615 119.825 860.949 118.53L862.951 116.542C863.17 116.324 863.429 116.152 863.714 116.035C863.998 115.919 864.302 115.861 864.609 115.864C864.916 115.867 865.219 115.932 865.501 116.055C865.783 116.177 866.038 116.355 866.253 116.578C866.467 116.801 866.636 117.065 866.751 117.354C866.865 117.644 866.922 117.954 866.919 118.266C866.916 118.578 866.852 118.886 866.732 119.173C866.611 119.46 866.437 119.72 866.218 119.939L864.237 121.908C862.04 124.111 859.078 125.345 855.994 125.341C852.909 125.338 849.951 124.097 847.759 121.888L832.667 106.544V130.125C832.667 132.015 833.404 133.827 834.717 135.163C836.03 136.499 837.81 137.25 839.667 137.25H872.333C874.19 137.25 875.97 136.499 877.283 135.163C878.596 133.827 879.333 132.015 879.333 130.125V118.25C879.333 117.62 879.579 117.016 880.017 116.571C880.454 116.125 881.048 115.875 881.667 115.875C882.286 115.875 882.879 116.125 883.317 116.571C883.754 117.016 884 117.62 884 118.25V118.25Z" fill="#51323C"/>
</g>
<path d="M471.406 147H457.335C454.329 147 451.446 145.824 449.32 143.729C447.194 141.635 446 138.795 446 135.833V121.875C446 118.913 447.194 116.073 449.32 113.979C451.446 111.885 454.329 110.708 457.335 110.708H482.435C483.969 110.709 485.476 111.1 486.812 111.843C488.147 112.586 489.265 113.655 490.058 114.949L499.175 105.08C499.929 104.263 500.839 103.601 501.853 103.131C502.867 102.661 503.965 102.392 505.085 102.34C506.204 102.288 507.323 102.454 508.378 102.829C509.432 103.203 510.401 103.778 511.23 104.522C512.883 106.018 513.874 108.094 513.989 110.302C514.104 112.511 513.334 114.676 511.845 116.331L492.575 137.651C489.914 140.59 486.653 142.943 483.004 144.554C479.356 146.165 475.404 146.999 471.406 147ZM457.335 116.292C455.832 116.292 454.391 116.88 453.328 117.927C452.265 118.974 451.668 120.394 451.668 121.875V135.833C451.668 137.314 452.265 138.734 453.328 139.781C454.391 140.828 455.832 141.417 457.335 141.417H471.406C474.602 141.415 477.762 140.749 480.679 139.46C483.595 138.172 486.202 136.291 488.329 133.941L507.614 112.618C508.114 112.062 508.374 111.335 508.335 110.593C508.297 109.851 507.965 109.154 507.41 108.651C506.845 108.151 506.105 107.888 505.347 107.917C504.971 107.932 504.602 108.022 504.261 108.179C503.92 108.337 503.615 108.56 503.363 108.835L490.82 122.433C490.27 123.935 489.316 125.26 488.06 126.269C486.804 127.278 485.294 127.932 483.69 128.162L469.065 130.222C468.321 130.327 467.565 130.137 466.963 129.693C466.362 129.249 465.964 128.588 465.857 127.855C465.75 127.122 465.943 126.377 466.394 125.784C466.845 125.192 467.516 124.8 468.26 124.695L482.888 122.637C483.7 122.525 484.439 122.114 484.955 121.486C485.471 120.859 485.726 120.062 485.669 119.256C485.611 118.45 485.245 117.696 484.645 117.146C484.045 116.596 483.255 116.29 482.435 116.292H457.335ZM477.172 105.332C475.888 105.335 474.641 104.905 473.639 104.114C468.787 100.279 463.003 94.5167 463.003 88.9333C462.934 86.6396 463.789 84.4121 465.382 82.738C466.975 81.0639 469.177 80.0794 471.505 80C473.623 80.0081 475.655 80.8258 477.172 82.2808C478.69 80.8258 480.722 80.0081 482.84 80C485.168 80.0794 487.37 81.0639 488.963 82.738C490.556 84.4121 491.411 86.6396 491.342 88.9333C491.342 94.5167 485.558 100.279 480.703 104.117C479.701 104.907 478.456 105.335 477.172 105.332V105.332ZM471.505 85.5833C470.681 85.6647 469.923 86.0613 469.393 86.6878C468.863 87.3142 468.604 88.1206 468.671 88.9333C468.671 91.4458 471.933 95.6054 477.189 99.7622C482.412 95.6054 485.674 91.4458 485.674 88.9333C485.741 88.1206 485.482 87.3142 484.952 86.6878C484.422 86.0613 483.664 85.6647 482.84 85.5833C482.017 85.6647 481.258 86.0613 480.728 86.6878C480.198 87.3142 479.939 88.1206 480.006 88.9333C480.006 89.6737 479.708 90.3838 479.176 90.9073C478.645 91.4309 477.924 91.725 477.172 91.725C476.421 91.725 475.7 91.4309 475.169 90.9073C474.637 90.3838 474.339 89.6737 474.339 88.9333C474.406 88.1206 474.147 87.3142 473.617 86.6878C473.087 86.0613 472.328 85.6647 471.505 85.5833V85.5833Z" fill="#51323C"/>
<g clip-path="url(#clip1_31:9359)">
<path d="M110.443 75.0525H110.036C108.637 75.0659 107.281 75.5464 106.183 76.4186C105.084 77.2908 104.305 78.5054 103.967 79.8715C103.604 81.2016 102.818 82.3752 101.728 83.2117C100.638 84.0482 99.3052 84.5013 97.9342 84.5013C96.5632 84.5013 95.2303 84.0482 94.1403 83.2117C93.0504 82.3752 92.2639 81.2016 91.9019 79.8715C91.5638 78.5054 90.7843 77.2908 89.6856 76.4186C88.587 75.5464 87.2315 75.0659 85.832 75.0525H85.4255C81.2801 75.0575 77.3059 76.7161 74.3747 79.6646C71.4435 82.6131 69.7945 86.6107 69.7896 90.7805V141.11C69.7896 143.613 70.778 146.013 72.5373 147.783C74.2967 149.553 76.683 150.547 79.1711 150.547H85.832C87.2315 150.533 88.587 150.053 89.6856 149.181C90.7843 148.308 91.5638 147.094 91.9019 145.728C92.2639 144.398 93.0504 143.224 94.1403 142.388C95.2303 141.551 96.5632 141.098 97.9342 141.098C99.3052 141.098 100.638 141.551 101.728 142.388C102.818 143.224 103.604 144.398 103.967 145.728C104.305 147.094 105.084 148.308 106.183 149.181C107.281 150.053 108.637 150.533 110.036 150.547H116.697C119.185 150.547 121.572 149.553 123.331 147.783C125.09 146.013 126.079 143.613 126.079 141.11V90.7805C126.074 86.6107 124.425 82.6131 121.494 79.6646C118.562 76.7161 114.588 75.0575 110.443 75.0525V75.0525ZM116.697 144.256L109.996 144.057C109.261 141.388 107.672 139.037 105.474 137.369C103.275 135.701 100.592 134.809 97.8383 134.832C95.0849 134.854 92.4159 135.79 90.2451 137.494C88.0744 139.198 86.5231 141.575 85.832 144.256H79.1711C78.3417 144.256 77.5463 143.924 76.9598 143.334C76.3734 142.744 76.0439 141.944 76.0439 141.11V128.528H82.2983C83.1277 128.528 83.9231 128.196 84.5095 127.606C85.096 127.016 85.4255 126.216 85.4255 125.382C85.4255 124.548 85.096 123.748 84.5095 123.158C83.9231 122.568 83.1277 122.236 82.2983 122.236H76.0439V90.7805C76.0439 88.2777 77.0323 85.8774 78.7917 84.1076C80.5511 82.3379 82.9373 81.3437 85.4255 81.3437L85.8727 81.5419C86.6051 84.1949 88.1805 86.534 90.3583 88.2022C92.5362 89.8703 95.1968 90.7758 97.9342 90.7805C100.709 90.7567 103.399 89.822 105.597 88.1185C107.794 86.4151 109.379 84.0361 110.108 81.3437H110.443C112.931 81.3437 115.317 82.3379 117.077 84.1076C118.836 85.8774 119.824 88.2777 119.824 90.7805V122.236H113.57C112.741 122.236 111.945 122.568 111.359 123.158C110.772 123.748 110.443 124.548 110.443 125.382C110.443 126.216 110.772 127.016 111.359 127.606C111.945 128.196 112.741 128.528 113.57 128.528H119.824V141.11C119.824 141.944 119.495 142.744 118.909 143.334C118.322 143.924 117.527 144.256 116.697 144.256Z" fill="#51323C"/>
<path d="M101.061 122.236H94.807C93.9776 122.236 93.1822 122.568 92.5958 123.158C92.0093 123.748 91.6798 124.548 91.6798 125.382C91.6798 126.216 92.0093 127.016 92.5958 127.606C93.1822 128.196 93.9776 128.528 94.807 128.528H101.061C101.891 128.528 102.686 128.196 103.273 127.606C103.859 127.016 104.189 126.216 104.189 125.382C104.189 124.548 103.859 123.748 103.273 123.158C102.686 122.568 101.891 122.236 101.061 122.236Z" fill="#51323C"/>
</g>
<path d="M101.014 102.547H100.105V104.778H101.014V102.547Z" fill="#51323C"/>
<path d="M102.832 102.547H101.923V104.778H102.832V102.547Z" fill="#51323C"/>
<path d="M101.014 105.671H100.105V106.564H101.014V105.671Z" fill="#51323C"/>
<path d="M102.832 105.671H101.923V106.564H102.832V105.671Z" fill="#51323C"/>
<path d="M97.833 107.456H96.9242V108.349H97.833V107.456Z" fill="#51323C"/>
<path d="M95.5609 116.38H94.6521V117.272H95.5609V116.38Z" fill="#51323C"/>
<path d="M102.832 107.456H101.923V108.349H102.832V107.456Z" fill="#51323C"/>
<path d="M101.014 109.24H100.105V110.133H101.014V109.24Z" fill="#51323C"/>
<path d="M102.832 109.24H101.923V110.133H102.832V109.24Z" fill="#51323C"/>
<path d="M83.7469 93.1779H85.1101V92.2855H83.2925C83.0416 92.2855 82.838 92.4854 82.838 92.7317V94.5165H83.7469V93.1779Z" fill="#51323C"/>
<path d="M111.466 92.2853H109.648V93.1777H111.011V94.5163H111.92V92.7315C111.92 92.4852 111.717 92.2853 111.466 92.2853Z" fill="#51323C"/>
<path d="M83.746 118.611H82.8372V120.395C82.8372 120.642 83.0408 120.842 83.2916 120.842H85.1093V119.949H83.746V118.611Z" fill="#51323C"/>
<path d="M111.011 119.95H109.648V120.842H111.466C111.717 120.842 111.92 120.642 111.92 120.396V118.611H111.011V119.95Z" fill="#51323C"/>
<path d="M84.655 94.5165V99.8709C84.655 100.117 84.8586 100.317 85.1094 100.317H90.5625C90.8133 100.317 91.0169 100.117 91.0169 99.8709V94.5165C91.0169 94.2702 90.8133 94.0703 90.5625 94.0703H85.1094C84.8586 94.0703 84.655 94.2702 84.655 94.5165ZM85.5639 94.9627H90.1081V99.4247H85.5639V94.9627Z" fill="#51323C"/>
<path d="M88.7444 95.8544H86.9267C86.6759 95.8544 86.4723 96.0543 86.4723 96.3006V98.0853C86.4723 98.3316 86.6759 98.5315 86.9267 98.5315H88.7444C88.9953 98.5315 89.1988 98.3316 89.1988 98.0853V96.3006C89.1988 96.0543 88.9953 95.8544 88.7444 95.8544ZM88.29 97.6392H87.3812V96.7468H88.29V97.6392Z" fill="#51323C"/>
<path d="M104.195 100.317H109.648C109.899 100.317 110.102 100.117 110.102 99.8709V94.5165C110.102 94.2702 109.899 94.0703 109.648 94.0703H104.195C103.944 94.0703 103.74 94.2702 103.74 94.5165V99.8709C103.74 100.117 103.944 100.317 104.195 100.317ZM104.649 94.9627H109.193V99.4247H104.649V94.9627Z" fill="#51323C"/>
<path d="M107.83 95.8544H106.013C105.762 95.8544 105.558 96.0543 105.558 96.3006V98.0853C105.558 98.3316 105.762 98.5315 106.013 98.5315H107.83C108.081 98.5315 108.285 98.3316 108.285 98.0853V96.3006C108.285 96.0543 108.081 95.8544 107.83 95.8544ZM107.376 97.6392H106.467V96.7468H107.376V97.6392Z" fill="#51323C"/>
<path d="M90.5625 112.81H85.1094C84.8586 112.81 84.655 113.01 84.655 113.256V118.611C84.655 118.857 84.8586 119.057 85.1094 119.057H90.5625C90.8133 119.057 91.0169 118.857 91.0169 118.611V113.256C91.0169 113.01 90.8133 112.81 90.5625 112.81ZM90.1081 118.165H85.5639V113.703H90.1081V118.165Z" fill="#51323C"/>
<path d="M86.9267 117.272H88.7444C88.9953 117.272 89.1988 117.072 89.1988 116.826V115.041C89.1988 114.795 88.9953 114.595 88.7444 114.595H86.9267C86.6759 114.595 86.4723 114.795 86.4723 115.041V116.826C86.4723 117.072 86.6759 117.272 86.9267 117.272ZM87.3812 115.487H88.29V116.38H87.3812V115.487Z" fill="#51323C"/>
<path d="M102.832 100.764H99.6508V95.4092H98.7419V101.21C98.7419 101.456 98.9455 101.656 99.1963 101.656H102.832V100.764Z" fill="#51323C"/>
<path d="M96.0157 97.6402H92.8347V98.5326H96.0157V97.6402Z" fill="#51323C"/>
<path d="M97.833 95.8544H94.6521V96.7468H97.833V95.8544Z" fill="#51323C"/>
<path d="M85.5639 100.763H84.655V104.779H85.5639V100.763Z" fill="#51323C"/>
<path d="M91.0165 103.44H86.4723V104.333H90.5621V106.117H91.4709V103.886C91.4709 103.64 91.2673 103.44 91.0165 103.44Z" fill="#51323C"/>
<path d="M87.836 101.209H86.9271V102.102H87.836V101.209Z" fill="#51323C"/>
<path d="M93.2888 100.316H92.38V103.886H93.2888V100.316Z" fill="#51323C"/>
<path d="M96.4697 104.778H92.38V105.671H96.4697V104.778Z" fill="#51323C"/>
<path d="M110.557 105.225H109.648V109.687H108.285V110.58H110.102C110.353 110.58 110.557 110.38 110.557 110.133V105.225Z" fill="#51323C"/>
<path d="M95.5609 100.316H94.6521V101.209H95.5609V100.316Z" fill="#51323C"/>
<path d="M85.5639 107.009H84.655V110.579H85.5639V107.009Z" fill="#51323C"/>
<path d="M88.7448 111.026H84.655V111.919H88.7448V111.026Z" fill="#51323C"/>
<path d="M105.558 104.778H106.467V102.993C106.467 102.747 106.263 102.547 106.013 102.547H103.74V103.44H105.558V104.778Z" fill="#51323C"/>
<path d="M87.836 107.009H86.9271V107.902H87.836V107.009Z" fill="#51323C"/>
<path d="M92.8345 106.564H91.9256V110.134H92.8345V106.564Z" fill="#51323C"/>
<path d="M96.0154 111.026H91.9256V111.919H96.0154V111.026Z" fill="#51323C"/>
<path d="M90.5621 109.24H86.4723V110.133H90.5621V109.24Z" fill="#51323C"/>
<path d="M93.2888 115.488H92.38V117.273H93.2888V115.488Z" fill="#51323C"/>
<path d="M96.0154 113.702H91.9256V114.595H96.0154V113.702Z" fill="#51323C"/>
<path d="M99.1963 111.917V109.686C99.1963 109.44 98.9928 109.24 98.7419 109.24H94.1977V110.133H98.2875V111.917H99.1963Z" fill="#51323C"/>
<path d="M95.5609 106.564H94.6521V107.457H95.5609V106.564Z" fill="#51323C"/>
<path d="M90.5624 107.456H89.6535V108.349H90.5624V107.456Z" fill="#51323C"/>
<path d="M110.557 115.933H109.648V119.057H110.557V115.933Z" fill="#51323C"/>
<path d="M108.739 118.164H107.376V119.057H108.739V118.164Z" fill="#51323C"/>
<path d="M108.285 115.488H107.376V117.273H108.285V115.488Z" fill="#51323C"/>
<path d="M110.557 111.917C110.557 111.671 110.353 111.471 110.102 111.471H105.104V112.364H109.648V115.041H110.557V111.917Z" fill="#51323C"/>
<path d="M104.649 117.272V115.041C104.649 114.795 104.446 114.595 104.195 114.595H99.1962V115.487H103.74V117.272H104.649Z" fill="#51323C"/>
<path d="M108.739 113.257H105.558V114.149H108.739V113.257Z" fill="#51323C"/>
<path d="M95.1066 118.164H91.9256V119.057H95.1066V118.164Z" fill="#51323C"/>
<path d="M97.3787 115.041H96.4698V119.057H97.3787V115.041Z" fill="#51323C"/>
<path d="M99.1966 112.81H97.3789V113.703H99.1966V112.81Z" fill="#51323C"/>
<path d="M104.195 108.348H106.467V107.455H104.649V104.778H103.74V107.902C103.74 108.148 103.944 108.348 104.195 108.348Z" fill="#51323C"/>
<path d="M107.83 105.671H105.558V106.564H107.83V105.671Z" fill="#51323C"/>
<path d="M108.739 101.209H107.376V102.102H108.739V101.209Z" fill="#51323C"/>
<path d="M110.557 101.209H109.648V103.44H110.557V101.209Z" fill="#51323C"/>
<path d="M108.285 103.44H107.376V104.333H108.285V103.44Z" fill="#51323C"/>
<path d="M100.56 99.8702H102.377C102.628 99.8702 102.832 99.6703 102.832 99.424V93.6234H101.923V98.9778H100.56V99.8702Z" fill="#51323C"/>
<path d="M93.7436 94.5158H100.56V93.6234H93.2892C93.0383 93.6234 92.8347 93.8233 92.8347 94.0696V96.3006H93.7436V94.5158Z" fill="#51323C"/>
<path d="M94.1977 102.994H97.3787C97.6295 102.994 97.8331 102.794 97.8331 102.548V98.9783H96.9242V102.102H94.1977V102.994Z" fill="#51323C"/>
<path d="M99.1964 102.547H98.2876V104.332H99.1964V102.547Z" fill="#51323C"/>
<path d="M102.377 116.38H99.1962V117.272H102.377V116.38Z" fill="#51323C"/>
<path d="M103.286 118.164H99.1962V119.057H103.286V118.164Z" fill="#51323C"/>
<path d="M105.558 118.165H104.649V119.057H106.012C106.263 119.057 106.467 118.857 106.467 118.611V115.041H105.558V118.165Z" fill="#51323C"/>
<path d="M91.0167 111.026H90.1079V111.919H91.0167V111.026Z" fill="#51323C"/>
<path d="M102.377 111.026H100.56V111.919H102.377V111.026Z" fill="#51323C"/>
<path d="M104.649 109.24H103.74V110.579H104.649V109.24Z" fill="#51323C"/>
<path d="M104.195 111.471H103.286V112.364H104.195V111.471Z" fill="#51323C"/>
<path d="M101.923 112.81H100.56V113.703H101.923V112.81Z" fill="#51323C"/>
<path d="M106.467 109.24H105.558V110.133H106.467V109.24Z" fill="#51323C"/>
<path d="M108.739 107.456H107.376V108.349H108.739V107.456Z" fill="#51323C"/>
<path d="M101.014 107.456H98.7419V108.349H101.014V107.456Z" fill="#51323C"/>
<path d="M99.1964 105.225H98.2876V106.564H99.1964V105.225Z" fill="#51323C"/>
<path d="M209.018 29.8093C208.913 30.3515 209.267 30.8764 209.809 30.9817L218.644 32.6976C219.186 32.8029 219.711 32.4487 219.817 31.9066C219.922 31.3644 219.568 30.8396 219.026 30.7343L211.172 29.209L212.698 21.3558C212.803 20.8136 212.449 20.2887 211.907 20.1834C211.364 20.0781 210.84 20.4323 210.734 20.9744L209.018 29.8093ZM366.093 30.9956C366.643 30.9441 367.047 30.4565 366.996 29.9067L366.156 20.946C366.104 20.3961 365.616 19.9921 365.067 20.0437C364.517 20.0952 364.113 20.5828 364.164 21.1326L364.911 29.0977L356.946 29.8445C356.396 29.896 355.992 30.3836 356.044 30.9335C356.095 31.4833 356.583 31.8873 357.133 31.8357L366.093 30.9956ZM213.731 28.7121C214.193 28.4083 214.32 27.7881 214.016 27.3269C213.713 26.8657 213.092 26.7381 212.631 27.042L213.731 28.7121ZM219.154 22.8843C218.683 23.1734 218.536 23.7893 218.825 24.2598C219.115 24.7304 219.73 24.8775 220.201 24.5884L219.154 22.8843ZM226.808 20.6966C227.289 20.4256 227.46 19.8158 227.189 19.3346C226.918 18.8534 226.308 18.6829 225.827 18.9539L226.808 20.6966ZM232.654 15.2954C232.162 15.5456 231.966 16.1476 232.216 16.64C232.466 17.1323 233.068 17.3285 233.561 17.0782L232.654 15.2954ZM240.469 13.7631C240.972 13.536 241.196 12.9438 240.969 12.4404C240.742 11.9369 240.15 11.713 239.646 11.9401L240.469 13.7631ZM246.795 8.92577C246.281 9.12731 246.028 9.70753 246.229 10.2217C246.431 10.7359 247.011 10.9894 247.525 10.7878L246.795 8.92577ZM254.711 8.19079C255.235 8.01735 255.519 7.45168 255.346 6.92734C255.173 6.403 254.607 6.11853 254.083 6.29198L254.711 8.19079ZM261.527 4.06477C260.994 4.20743 260.677 4.75561 260.819 5.28915C260.962 5.82269 261.51 6.13955 262.044 5.99688L261.527 4.06477ZM269.472 4.25244C270.013 4.14305 270.364 3.61552 270.254 3.07418C270.145 2.53284 269.617 2.18268 269.076 2.29207L269.472 4.25244ZM276.746 1.00053C276.199 1.07413 275.815 1.57752 275.888 2.12488C275.962 2.67224 276.465 3.05629 277.013 2.98269L276.746 1.00053ZM284.596 2.22557C285.147 2.18978 285.565 1.71399 285.529 1.16287C285.493 0.611747 285.018 0.193987 284.467 0.229778L284.596 2.22557ZM292.24 0.00242446C291.688 -0.00130337 291.237 0.44338 291.234 0.995652C291.23 1.54792 291.675 1.99865 292.227 2.00238L292.24 0.00242446ZM299.846 2.33265C300.397 2.37684 300.879 1.96639 300.923 1.41588C300.967 0.865366 300.557 0.383258 300.006 0.339062L299.846 2.33265ZM307.72 1.24684C307.175 1.162 306.664 1.53564 306.579 2.08137C306.494 2.6271 306.868 3.13827 307.413 3.2231L307.72 1.24684ZM314.906 4.67372C315.444 4.79863 315.981 4.46377 316.106 3.9258C316.231 3.38782 315.896 2.85045 315.358 2.72554L314.906 4.67372ZM322.872 4.7617C322.345 4.59809 321.785 4.89306 321.621 5.42055C321.457 5.94805 321.752 6.5083 322.28 6.67192L322.872 4.7617ZM329.469 9.18302C329.984 9.38316 330.564 9.12812 330.764 8.61338C330.964 8.09863 330.709 7.5191 330.194 7.31896L329.469 9.18302ZM337.327 10.3734C336.826 10.1393 336.231 10.3549 335.997 10.8551C335.763 11.3553 335.978 11.9506 336.479 12.1848L337.327 10.3734ZM343.284 15.6408C343.769 15.9062 344.377 15.7287 344.642 15.2444C344.907 14.7601 344.73 14.1523 344.246 13.8869L343.284 15.6408ZM350.934 17.8178C350.466 17.5241 349.849 17.6652 349.555 18.1329C349.262 18.6006 349.403 19.2178 349.87 19.5115L350.934 17.8178ZM356.227 23.7563C356.677 24.0754 357.302 23.9688 357.621 23.518C357.94 23.0673 357.833 22.4432 357.383 22.124L356.227 23.7563ZM363.589 26.7652C363.155 26.4234 362.526 26.4979 362.184 26.9317C361.842 27.3654 361.917 27.9942 362.351 28.336L363.589 26.7652ZM210.559 30.829C211.551 30.1597 212.609 29.4514 213.731 28.7121L212.631 27.042C211.501 27.7863 210.437 28.4989 209.441 29.171L210.559 30.829ZM220.201 24.5884C222.264 23.3205 224.47 22.0133 226.808 20.6966L225.827 18.9539C223.464 20.2844 221.237 21.6048 219.154 22.8843L220.201 24.5884ZM233.561 17.0782C235.773 15.9533 238.078 14.8419 240.469 13.7631L239.646 11.9401C237.225 13.0325 234.893 14.1574 232.654 15.2954L233.561 17.0782ZM247.525 10.7878C249.855 9.87479 252.251 9.00426 254.711 8.19079L254.083 6.29198C251.587 7.11737 249.157 8.00027 246.795 8.92577L247.525 10.7878ZM262.044 5.99688C264.47 5.34826 266.947 4.76275 269.472 4.25244L269.076 2.29207C266.509 2.81091 263.991 3.40596 261.527 4.06477L262.044 5.99688ZM277.013 2.98269C279.501 2.64805 282.03 2.39221 284.596 2.22557L284.467 0.229778C281.853 0.399487 279.279 0.659987 276.746 1.00053L277.013 2.98269ZM292.227 2.00238C294.737 2.01932 297.277 2.1264 299.846 2.33265L300.006 0.339062C297.388 0.128815 294.798 0.019688 292.24 0.00242446L292.227 2.00238ZM307.413 3.2231C309.888 3.60784 312.387 4.08883 314.906 4.67372L315.358 2.72554C312.79 2.12939 310.244 1.63907 307.72 1.24684L307.413 3.2231ZM322.28 6.67192C324.661 7.41036 327.058 8.24532 329.469 9.18302L330.194 7.31896C327.739 6.36435 325.298 5.51399 322.872 4.7617L322.28 6.67192ZM336.479 12.1848C338.737 13.2418 341.006 14.3922 343.284 15.6408L344.246 13.8869C341.93 12.6181 339.623 11.4486 337.327 10.3734L336.479 12.1848ZM349.87 19.5115C351.982 20.8379 354.102 22.2515 356.227 23.7563L357.383 22.124C355.228 20.5983 353.078 19.1641 350.934 17.8178L349.87 19.5115ZM362.351 28.336C363.353 29.1263 364.357 29.9375 365.362 30.77L366.638 29.23C365.621 28.3871 364.604 27.5657 363.589 26.7652L362.351 28.336Z" fill="#D9AF00"/>
<path d="M588.018 197.191C587.913 196.649 588.267 196.124 588.809 196.018L597.644 194.302C598.186 194.197 598.711 194.551 598.817 195.093C598.922 195.636 598.568 196.16 598.026 196.266L590.172 197.791L591.698 205.644C591.803 206.186 591.449 206.711 590.907 206.817C590.364 206.922 589.84 206.568 589.734 206.026L588.018 197.191ZM745.093 196.004C745.643 196.056 746.047 196.543 745.996 197.093L745.156 206.054C745.104 206.604 744.616 207.008 744.067 206.956C743.517 206.905 743.113 206.417 743.164 205.867L743.911 197.902L735.946 197.156C735.396 197.104 734.992 196.616 735.044 196.067C735.095 195.517 735.583 195.113 736.133 195.164L745.093 196.004ZM592.731 198.288C593.193 198.592 593.32 199.212 593.016 199.673C592.713 200.134 592.092 200.262 591.631 199.958L592.731 198.288ZM598.154 204.116C597.683 203.827 597.536 203.211 597.825 202.74C598.115 202.27 598.73 202.123 599.201 202.412L598.154 204.116ZM605.808 206.303C606.289 206.574 606.46 207.184 606.189 207.665C605.918 208.147 605.308 208.317 604.827 208.046L605.808 206.303ZM611.654 211.705C611.162 211.454 610.966 210.852 611.216 210.36C611.466 209.868 612.068 209.672 612.561 209.922L611.654 211.705ZM619.469 213.237C619.972 213.464 620.196 214.056 619.969 214.56C619.742 215.063 619.15 215.287 618.646 215.06L619.469 213.237ZM625.795 218.074C625.281 217.873 625.028 217.292 625.229 216.778C625.431 216.264 626.011 216.011 626.525 216.212L625.795 218.074ZM633.711 218.809C634.235 218.983 634.519 219.548 634.346 220.073C634.173 220.597 633.607 220.881 633.083 220.708L633.711 218.809ZM640.527 222.935C639.994 222.793 639.677 222.244 639.819 221.711C639.962 221.177 640.51 220.86 641.044 221.003L640.527 222.935ZM648.472 222.748C649.013 222.857 649.364 223.384 649.254 223.926C649.145 224.467 648.617 224.817 648.076 224.708L648.472 222.748ZM655.746 225.999C655.199 225.926 654.815 225.422 654.888 224.875C654.962 224.328 655.465 223.944 656.013 224.017L655.746 225.999ZM663.596 224.774C664.147 224.81 664.565 225.286 664.529 225.837C664.493 226.388 664.018 226.806 663.467 226.77L663.596 224.774ZM671.24 226.998C670.688 227.001 670.237 226.557 670.234 226.004C670.23 225.452 670.675 225.001 671.227 224.998L671.24 226.998ZM678.846 224.667C679.397 224.623 679.879 225.034 679.923 225.584C679.967 226.135 679.557 226.617 679.006 226.661L678.846 224.667ZM686.72 225.753C686.175 225.838 685.664 225.464 685.579 224.919C685.494 224.373 685.868 223.862 686.413 223.777L686.72 225.753ZM693.906 222.326C694.444 222.201 694.981 222.536 695.106 223.074C695.231 223.612 694.896 224.15 694.358 224.274L693.906 222.326ZM701.872 222.238C701.345 222.402 700.785 222.107 700.621 221.579C700.457 221.052 700.752 220.492 701.28 220.328L701.872 222.238ZM708.469 217.817C708.984 217.617 709.564 217.872 709.764 218.387C709.964 218.901 709.709 219.481 709.194 219.681L708.469 217.817ZM716.327 216.627C715.826 216.861 715.231 216.645 714.997 216.145C714.763 215.645 714.978 215.049 715.479 214.815L716.327 216.627ZM722.284 211.359C722.769 211.094 723.377 211.271 723.642 211.756C723.907 212.24 723.73 212.848 723.246 213.113L722.284 211.359ZM729.934 209.182C729.466 209.476 728.849 209.335 728.555 208.867C728.262 208.399 728.403 207.782 728.87 207.488L729.934 209.182ZM735.227 203.244C735.677 202.925 736.302 203.031 736.621 203.482C736.94 203.933 736.833 204.557 736.383 204.876L735.227 203.244ZM742.589 200.235C742.155 200.577 741.526 200.502 741.184 200.068C740.842 199.635 740.917 199.006 741.351 198.664L742.589 200.235ZM589.559 196.171C590.551 196.84 591.609 197.549 592.731 198.288L591.631 199.958C590.501 199.214 589.437 198.501 588.441 197.829L589.559 196.171ZM599.201 202.412C601.264 203.679 603.47 204.987 605.808 206.303L604.827 208.046C602.464 206.716 600.237 205.395 598.154 204.116L599.201 202.412ZM612.561 209.922C614.773 211.047 617.078 212.158 619.469 213.237L618.646 215.06C616.225 213.968 613.893 212.843 611.654 211.705L612.561 209.922ZM626.525 216.212C628.855 217.125 631.251 217.996 633.711 218.809L633.083 220.708C630.587 219.883 628.157 219 625.795 218.074L626.525 216.212ZM641.044 221.003C643.47 221.652 645.947 222.237 648.472 222.748L648.076 224.708C645.509 224.189 642.991 223.594 640.527 222.935L641.044 221.003ZM656.013 224.017C658.501 224.352 661.03 224.608 663.596 224.774L663.467 226.77C660.853 226.601 658.279 226.34 655.746 225.999L656.013 224.017ZM671.227 224.998C673.737 224.981 676.277 224.874 678.846 224.667L679.006 226.661C676.388 226.871 673.798 226.98 671.24 226.998L671.227 224.998ZM686.413 223.777C688.888 223.392 691.387 222.911 693.906 222.326L694.358 224.274C691.79 224.871 689.244 225.361 686.72 225.753L686.413 223.777ZM701.28 220.328C703.661 219.59 706.058 218.755 708.469 217.817L709.194 219.681C706.739 220.636 704.298 221.486 701.872 222.238L701.28 220.328ZM715.479 214.815C717.737 213.758 720.006 212.608 722.284 211.359L723.246 213.113C720.93 214.382 718.623 215.551 716.327 216.627L715.479 214.815ZM728.87 207.488C730.982 206.162 733.102 204.748 735.227 203.244L736.383 204.876C734.228 206.402 732.078 207.836 729.934 209.182L728.87 207.488ZM741.351 198.664C742.353 197.874 743.357 197.062 744.362 196.23L745.638 197.77C744.621 198.613 743.604 199.434 742.589 200.235L741.351 198.664Z" fill="#D9AF00"/>
<defs>
<clipPath id="clip0_31:9359">
<rect width="56" height="57" fill="white" transform="translate(828 85)"/>
</clipPath>
<clipPath id="clip1_31:9359">
<rect width="75.0524" height="75.4943" fill="white" transform="translate(60.408 75.0525)"/>
</clipPath>
</defs>
</svg>
