<svg width="196" height="196" viewBox="0 0 196 196" fill="none" xmlns="http://www.w3.org/2000/svg">
<circle cx="98" cy="98" r="96.5" stroke="#F5EFD9" stroke-width="3"/>
<ellipse cx="98" cy="98" rx="68" ry="66" fill="#F5EFD9"/>
<g clip-path="url(#clip0_46:295)">
<path d="M121.333 70H109.667C108.429 70 107.242 70.5004 106.367 71.3912C105.492 72.282 105 73.4902 105 74.75V91.2515C105.001 92.1682 105.256 93.066 105.736 93.8417C106.216 94.6173 106.902 95.2394 107.714 95.6363C108.525 96.0332 109.431 96.1889 110.326 96.0854C111.221 95.982 112.069 95.6236 112.772 95.0515L115.5 92.8309L118.228 95.0539C118.932 95.6261 119.78 95.9845 120.675 96.0879C121.57 96.1912 122.476 96.0353 123.287 95.6381C124.099 95.2409 124.785 94.6185 125.265 93.8425C125.744 93.0665 125.999 92.1684 126 91.2515V74.75C126 73.4902 125.508 72.282 124.633 71.3912C123.758 70.5004 122.571 70 121.333 70V70ZM121.144 91.3441L116.958 87.936C116.544 87.5987 116.03 87.415 115.5 87.415C114.97 87.415 114.456 87.5987 114.042 87.936L109.667 91.2515V74.75H121.333L121.144 91.3441ZM126 103.25V115.125C125.996 118.273 124.766 121.292 122.579 123.518C120.392 125.744 117.426 126.996 114.333 127H81.6667C78.5736 126.996 75.6083 125.744 73.4212 123.518C71.2341 121.292 70.0037 118.273 70 115.125V89C70.0037 85.8517 71.2341 82.8334 73.4212 80.6073C75.6083 78.3811 78.5736 77.1288 81.6667 77.125H98C98.6188 77.125 99.2123 77.3752 99.6499 77.8206C100.087 78.266 100.333 78.8701 100.333 79.5C100.333 80.1299 100.087 80.734 99.6499 81.1794C99.2123 81.6248 98.6188 81.875 98 81.875H81.6667C80.3978 81.8786 79.1539 82.2343 78.0689 82.9039C76.9839 83.5734 76.0989 84.5315 75.509 85.675L93.0487 103.53C94.383 104.825 96.1556 105.547 97.9988 105.547C99.8421 105.547 101.615 104.825 102.949 103.53L104.951 101.542C105.17 101.324 105.429 101.152 105.714 101.035C105.998 100.919 106.302 100.861 106.609 100.864C106.916 100.867 107.219 100.932 107.501 101.055C107.783 101.177 108.038 101.355 108.253 101.578C108.467 101.801 108.636 102.065 108.751 102.354C108.865 102.644 108.922 102.954 108.919 103.266C108.916 103.578 108.852 103.886 108.732 104.173C108.611 104.46 108.437 104.72 108.218 104.939L106.237 106.908C104.04 109.111 101.078 110.345 97.9938 110.341C94.9095 110.338 91.9507 109.097 89.7587 106.889L74.6667 91.5436V115.125C74.6667 117.015 75.4042 118.827 76.7169 120.163C78.0297 121.499 79.8102 122.25 81.6667 122.25H114.333C116.19 122.25 117.97 121.499 119.283 120.163C120.596 118.827 121.333 117.015 121.333 115.125V103.25C121.333 102.62 121.579 102.016 122.017 101.571C122.454 101.125 123.048 100.875 123.667 100.875C124.285 100.875 124.879 101.125 125.317 101.571C125.754 102.016 126 102.62 126 103.25Z" fill="#51323C"/>
</g>
<defs>
<clipPath id="clip0_46:295">
<rect width="56" height="57" fill="white" transform="translate(70 70)"/>
</clipPath>
</defs>
</svg>
