<svg width="196" height="196" viewBox="0 0 196 196" fill="none" xmlns="http://www.w3.org/2000/svg">
<circle cx="98" cy="98" r="96.5" stroke="#F5EFD9" stroke-width="3"/>
<ellipse cx="98" cy="98" rx="68" ry="66" fill="#F5EFD9"/>
<g clip-path="url(#clip0_46:296)">
<path d="M110.443 60.0525H110.036C108.637 60.0659 107.281 60.5464 106.183 61.4186C105.084 62.2908 104.305 63.5054 103.967 64.8715C103.604 66.2016 102.818 67.3752 101.728 68.2117C100.638 69.0482 99.3052 69.5013 97.9342 69.5013C96.5632 69.5013 95.2303 69.0482 94.1403 68.2117C93.0504 67.3752 92.2639 66.2016 91.9019 64.8715C91.5638 63.5054 90.7843 62.2908 89.6856 61.4186C88.587 60.5464 87.2315 60.0659 85.832 60.0525H85.4255C81.2801 60.0575 77.3059 61.7161 74.3747 64.6646C71.4435 67.6131 69.7945 71.6107 69.7896 75.7805V126.11C69.7896 128.613 70.778 131.013 72.5373 132.783C74.2967 134.553 76.683 135.547 79.1711 135.547H85.832C87.2315 135.533 88.587 135.053 89.6856 134.181C90.7843 133.308 91.5638 132.094 91.9019 130.728C92.2639 129.398 93.0504 128.224 94.1403 127.388C95.2303 126.551 96.5632 126.098 97.9342 126.098C99.3052 126.098 100.638 126.551 101.728 127.388C102.818 128.224 103.604 129.398 103.967 130.728C104.305 132.094 105.084 133.308 106.183 134.181C107.281 135.053 108.637 135.533 110.036 135.547H116.697C119.185 135.547 121.572 134.553 123.331 132.783C125.09 131.013 126.079 128.613 126.079 126.11V75.7805C126.074 71.6107 124.425 67.6131 121.494 64.6646C118.562 61.7161 114.588 60.0575 110.443 60.0525V60.0525ZM116.697 129.256L109.996 129.057C109.261 126.388 107.672 124.037 105.474 122.369C103.275 120.701 100.592 119.809 97.8383 119.832C95.0849 119.854 92.4159 120.79 90.2451 122.494C88.0744 124.198 86.5231 126.575 85.832 129.256H79.1711C78.3417 129.256 77.5463 128.924 76.9598 128.334C76.3734 127.744 76.0439 126.944 76.0439 126.11V113.528H82.2983C83.1277 113.528 83.9231 113.196 84.5095 112.606C85.096 112.016 85.4255 111.216 85.4255 110.382C85.4255 109.548 85.096 108.748 84.5095 108.158C83.9231 107.568 83.1277 107.236 82.2983 107.236H76.0439V75.7805C76.0439 73.2777 77.0323 70.8774 78.7917 69.1076C80.5511 67.3379 82.9373 66.3437 85.4255 66.3437L85.8727 66.5419C86.6051 69.1949 88.1805 71.534 90.3583 73.2022C92.5362 74.8703 95.1968 75.7758 97.9342 75.7805C100.709 75.7567 103.399 74.822 105.597 73.1185C107.794 71.4151 109.379 69.0361 110.108 66.3437H110.443C112.931 66.3437 115.317 67.3379 117.077 69.1076C118.836 70.8774 119.824 73.2777 119.824 75.7805V107.236H113.57C112.741 107.236 111.945 107.568 111.359 108.158C110.772 108.748 110.443 109.548 110.443 110.382C110.443 111.216 110.772 112.016 111.359 112.606C111.945 113.196 112.741 113.528 113.57 113.528H119.824V126.11C119.824 126.944 119.495 127.744 118.909 128.334C118.322 128.924 117.527 129.256 116.697 129.256Z" fill="#51323C"/>
<path d="M101.061 107.236H94.807C93.9776 107.236 93.1822 107.568 92.5958 108.158C92.0093 108.748 91.6798 109.548 91.6798 110.382C91.6798 111.216 92.0093 112.016 92.5958 112.606C93.1822 113.196 93.9776 113.528 94.807 113.528H101.061C101.891 113.528 102.686 113.196 103.273 112.606C103.859 112.016 104.189 111.216 104.189 110.382C104.189 109.548 103.859 108.748 103.273 108.158C102.686 107.568 101.891 107.236 101.061 107.236Z" fill="#51323C"/>
</g>
<path d="M101.014 87.5473H100.105V89.7783H101.014V87.5473Z" fill="#51323C"/>
<path d="M102.832 87.5473H101.923V89.7783H102.832V87.5473Z" fill="#51323C"/>
<path d="M101.014 90.6712H100.105V91.5636H101.014V90.6712Z" fill="#51323C"/>
<path d="M102.832 90.6712H101.923V91.5636H102.832V90.6712Z" fill="#51323C"/>
<path d="M97.833 92.4562H96.9242V93.3486H97.833V92.4562Z" fill="#51323C"/>
<path d="M95.5609 101.38H94.6521V102.272H95.5609V101.38Z" fill="#51323C"/>
<path d="M102.832 92.4562H101.923V93.3486H102.832V92.4562Z" fill="#51323C"/>
<path d="M101.014 94.2402H100.105V95.1326H101.014V94.2402Z" fill="#51323C"/>
<path d="M102.832 94.2402H101.923V95.1326H102.832V94.2402Z" fill="#51323C"/>
<path d="M83.7469 78.1779H85.1101V77.2855H83.2925C83.0416 77.2855 82.838 77.4854 82.838 77.7317V79.5165H83.7469V78.1779Z" fill="#51323C"/>
<path d="M111.466 77.2853H109.648V78.1777H111.011V79.5163H111.92V77.7315C111.92 77.4852 111.717 77.2853 111.466 77.2853Z" fill="#51323C"/>
<path d="M83.746 103.611H82.8372V105.395C82.8372 105.642 83.0408 105.842 83.2916 105.842H85.1093V104.949H83.746V103.611Z" fill="#51323C"/>
<path d="M111.011 104.95H109.648V105.842H111.466C111.717 105.842 111.92 105.642 111.92 105.396V103.611H111.011V104.95Z" fill="#51323C"/>
<path d="M84.655 79.5165V84.8709C84.655 85.1172 84.8586 85.3171 85.1094 85.3171H90.5625C90.8133 85.3171 91.0169 85.1172 91.0169 84.8709V79.5165C91.0169 79.2702 90.8133 79.0703 90.5625 79.0703H85.1094C84.8586 79.0703 84.655 79.2702 84.655 79.5165ZM85.5639 79.9627H90.1081V84.4247H85.5639V79.9627Z" fill="#51323C"/>
<path d="M88.7444 80.8544H86.9267C86.6759 80.8544 86.4723 81.0543 86.4723 81.3006V83.0853C86.4723 83.3316 86.6759 83.5315 86.9267 83.5315H88.7444C88.9953 83.5315 89.1988 83.3316 89.1988 83.0853V81.3006C89.1988 81.0543 88.9953 80.8544 88.7444 80.8544ZM88.29 82.6392H87.3812V81.7468H88.29V82.6392Z" fill="#51323C"/>
<path d="M104.195 85.3171H109.648C109.899 85.3171 110.102 85.1172 110.102 84.8709V79.5165C110.102 79.2702 109.899 79.0703 109.648 79.0703H104.195C103.944 79.0703 103.74 79.2702 103.74 79.5165V84.8709C103.74 85.1172 103.944 85.3171 104.195 85.3171ZM104.649 79.9627H109.193V84.4247H104.649V79.9627Z" fill="#51323C"/>
<path d="M107.83 80.8544H106.013C105.762 80.8544 105.558 81.0543 105.558 81.3006V83.0853C105.558 83.3316 105.762 83.5315 106.013 83.5315H107.83C108.081 83.5315 108.285 83.3316 108.285 83.0853V81.3006C108.285 81.0543 108.081 80.8544 107.83 80.8544ZM107.376 82.6392H106.467V81.7468H107.376V82.6392Z" fill="#51323C"/>
<path d="M90.5625 97.8102H85.1094C84.8586 97.8102 84.655 98.0101 84.655 98.2564V103.611C84.655 103.857 84.8586 104.057 85.1094 104.057H90.5625C90.8133 104.057 91.0169 103.857 91.0169 103.611V98.2564C91.0169 98.0101 90.8133 97.8102 90.5625 97.8102ZM90.1081 103.165H85.5639V98.7026H90.1081V103.165Z" fill="#51323C"/>
<path d="M86.9267 102.272H88.7444C88.9953 102.272 89.1988 102.072 89.1988 101.826V100.041C89.1988 99.795 88.9953 99.5951 88.7444 99.5951H86.9267C86.6759 99.5951 86.4723 99.795 86.4723 100.041V101.826C86.4723 102.072 86.6759 102.272 86.9267 102.272ZM87.3812 100.487H88.29V101.38H87.3812V100.487Z" fill="#51323C"/>
<path d="M102.832 85.7636H99.6508V80.4092H98.7419V86.2098C98.7419 86.4561 98.9455 86.656 99.1963 86.656H102.832V85.7636Z" fill="#51323C"/>
<path d="M96.0157 82.6402H92.8347V83.5326H96.0157V82.6402Z" fill="#51323C"/>
<path d="M97.833 80.8544H94.6521V81.7468H97.833V80.8544Z" fill="#51323C"/>
<path d="M85.5639 85.7632H84.655V89.779H85.5639V85.7632Z" fill="#51323C"/>
<path d="M91.0165 88.4402H86.4723V89.3326H90.5621V91.1174H91.4709V88.8864C91.4709 88.6401 91.2673 88.4402 91.0165 88.4402Z" fill="#51323C"/>
<path d="M87.836 86.2092H86.9271V87.1016H87.836V86.2092Z" fill="#51323C"/>
<path d="M93.2888 85.3163H92.38V88.8859H93.2888V85.3163Z" fill="#51323C"/>
<path d="M96.4697 89.7783H92.38V90.6707H96.4697V89.7783Z" fill="#51323C"/>
<path d="M110.557 90.2252H109.648V94.6872H108.285V95.5796H110.102C110.353 95.5796 110.557 95.3797 110.557 95.1334V90.2252Z" fill="#51323C"/>
<path d="M95.5609 85.3163H94.6521V86.2087H95.5609V85.3163Z" fill="#51323C"/>
<path d="M85.5639 92.0093H84.655V95.5788H85.5639V92.0093Z" fill="#51323C"/>
<path d="M88.7448 96.0261H84.655V96.9185H88.7448V96.0261Z" fill="#51323C"/>
<path d="M105.558 89.7783H106.467V87.9935C106.467 87.7472 106.263 87.5473 106.013 87.5473H103.74V88.4397H105.558V89.7783Z" fill="#51323C"/>
<path d="M87.836 92.0093H86.9271V92.9017H87.836V92.0093Z" fill="#51323C"/>
<path d="M92.8345 91.5641H91.9256V95.1337H92.8345V91.5641Z" fill="#51323C"/>
<path d="M96.0154 96.0261H91.9256V96.9185H96.0154V96.0261Z" fill="#51323C"/>
<path d="M90.5621 94.2402H86.4723V95.1326H90.5621V94.2402Z" fill="#51323C"/>
<path d="M93.2888 100.488H92.38V102.273H93.2888V100.488Z" fill="#51323C"/>
<path d="M96.0154 98.7022H91.9256V99.5946H96.0154V98.7022Z" fill="#51323C"/>
<path d="M99.1963 96.9174V94.6864C99.1963 94.4401 98.9928 94.2402 98.7419 94.2402H94.1977V95.1326H98.2875V96.9174H99.1963Z" fill="#51323C"/>
<path d="M95.5609 91.5641H94.6521V92.4565H95.5609V91.5641Z" fill="#51323C"/>
<path d="M90.5624 92.4562H89.6535V93.3486H90.5624V92.4562Z" fill="#51323C"/>
<path d="M110.557 100.933H109.648V104.057H110.557V100.933Z" fill="#51323C"/>
<path d="M108.739 103.164H107.376V104.057H108.739V103.164Z" fill="#51323C"/>
<path d="M108.285 100.488H107.376V102.273H108.285V100.488Z" fill="#51323C"/>
<path d="M110.557 96.9174C110.557 96.6711 110.353 96.4712 110.102 96.4712H105.104V97.3636H109.648V100.041H110.557V96.9174Z" fill="#51323C"/>
<path d="M104.649 102.272V100.041C104.649 99.795 104.446 99.5951 104.195 99.5951H99.1962V100.487H103.74V102.272H104.649Z" fill="#51323C"/>
<path d="M108.739 98.2571H105.558V99.1495H108.739V98.2571Z" fill="#51323C"/>
<path d="M95.1066 103.164H91.9256V104.057H95.1066V103.164Z" fill="#51323C"/>
<path d="M97.3787 100.041H96.4698V104.057H97.3787V100.041Z" fill="#51323C"/>
<path d="M99.1966 97.8102H97.3789V98.7026H99.1966V97.8102Z" fill="#51323C"/>
<path d="M104.195 93.3478H106.467V92.4554H104.649V89.7783H103.74V92.9016C103.74 93.1479 103.944 93.3478 104.195 93.3478Z" fill="#51323C"/>
<path d="M107.83 90.6712H105.558V91.5636H107.83V90.6712Z" fill="#51323C"/>
<path d="M108.739 86.2092H107.376V87.1016H108.739V86.2092Z" fill="#51323C"/>
<path d="M110.557 86.2092H109.648V88.4402H110.557V86.2092Z" fill="#51323C"/>
<path d="M108.285 88.4402H107.376V89.3326H108.285V88.4402Z" fill="#51323C"/>
<path d="M100.56 84.8702H102.377C102.628 84.8702 102.832 84.6703 102.832 84.424V78.6234H101.923V83.9778H100.56V84.8702Z" fill="#51323C"/>
<path d="M93.7436 79.5158H100.56V78.6234H93.2892C93.0383 78.6234 92.8347 78.8233 92.8347 79.0696V81.3006H93.7436V79.5158Z" fill="#51323C"/>
<path d="M94.1977 87.994H97.3787C97.6295 87.994 97.8331 87.7941 97.8331 87.5478V83.9783H96.9242V87.1016H94.1977V87.994Z" fill="#51323C"/>
<path d="M99.1964 87.5473H98.2876V89.3321H99.1964V87.5473Z" fill="#51323C"/>
<path d="M102.377 101.38H99.1962V102.272H102.377V101.38Z" fill="#51323C"/>
<path d="M103.286 103.164H99.1962V104.057H103.286V103.164Z" fill="#51323C"/>
<path d="M105.558 103.165H104.649V104.057H106.012C106.263 104.057 106.467 103.857 106.467 103.611V100.041H105.558V103.165Z" fill="#51323C"/>
<path d="M91.0167 96.0261H90.1079V96.9185H91.0167V96.0261Z" fill="#51323C"/>
<path d="M102.377 96.0261H100.56V96.9185H102.377V96.0261Z" fill="#51323C"/>
<path d="M104.649 94.2402H103.74V95.5788H104.649V94.2402Z" fill="#51323C"/>
<path d="M104.195 96.4712H103.286V97.3636H104.195V96.4712Z" fill="#51323C"/>
<path d="M101.923 97.8102H100.56V98.7026H101.923V97.8102Z" fill="#51323C"/>
<path d="M106.467 94.2402H105.558V95.1326H106.467V94.2402Z" fill="#51323C"/>
<path d="M108.739 92.4562H107.376V93.3486H108.739V92.4562Z" fill="#51323C"/>
<path d="M101.014 92.4562H98.7419V93.3486H101.014V92.4562Z" fill="#51323C"/>
<path d="M99.1964 90.2252H98.2876V91.5638H99.1964V90.2252Z" fill="#51323C"/>
<defs>
<clipPath id="clip0_46:296">
<rect width="75.0524" height="75.4943" fill="white" transform="translate(60.408 60.0525)"/>
</clipPath>
</defs>
</svg>
