<svg width="196" height="196" viewBox="0 0 196 196" fill="none" xmlns="http://www.w3.org/2000/svg">
<circle cx="98" cy="98" r="96.5" stroke="#F5EFD9" stroke-width="3"/>
<ellipse cx="98" cy="98" rx="68" ry="66" fill="#F5EFD9"/>
<path d="M92.4056 132H78.3354C75.3291 132 72.4459 130.824 70.3201 128.729C68.1943 126.635 67 123.795 67 120.833V106.875C67 103.913 68.1943 101.073 70.3201 98.979C72.4459 96.8848 75.3291 95.7083 78.3354 95.7083H103.435C104.969 95.709 106.476 96.0998 107.812 96.8427C109.147 97.5856 110.265 98.6555 111.058 99.9489L120.175 90.0803C120.929 89.2635 121.839 88.601 122.853 88.1308C123.867 87.6606 124.965 87.3919 126.085 87.3401C127.204 87.2882 128.323 87.4542 129.378 87.8286C130.432 88.203 131.401 88.7784 132.23 89.522C133.883 91.0181 134.874 93.0939 134.989 95.3025C135.104 97.5111 134.334 99.6758 132.845 101.331L113.575 122.651C110.914 125.59 107.653 127.943 104.004 129.554C100.356 131.165 96.4036 131.999 92.4056 132ZM78.3354 101.292C76.8323 101.292 75.3907 101.88 74.3278 102.927C73.2649 103.974 72.6677 105.394 72.6677 106.875V120.833C72.6677 122.314 73.2649 123.734 74.3278 124.781C75.3907 125.828 76.8323 126.417 78.3354 126.417H92.4056C95.6019 126.415 98.762 125.749 101.679 124.46C104.595 123.172 107.202 121.291 109.329 118.941L128.614 97.6178C129.114 97.0623 129.374 96.3352 129.335 95.5932C129.297 94.8513 128.965 94.1537 128.41 93.6509C127.845 93.151 127.105 92.8876 126.347 92.9167C125.971 92.9323 125.602 93.0216 125.261 93.1793C124.92 93.337 124.615 93.5599 124.363 93.8351L111.82 107.433C111.27 108.935 110.316 110.26 109.06 111.269C107.804 112.278 106.294 112.932 104.69 113.162L90.0648 115.222C89.3207 115.327 88.5647 115.137 87.9631 114.693C87.3615 114.249 86.9636 113.588 86.8569 112.855C86.7501 112.122 86.9434 111.377 87.394 110.784C87.8447 110.192 88.5159 109.8 89.26 109.695L103.888 107.637C104.7 107.525 105.439 107.114 105.955 106.486C106.471 105.859 106.726 105.062 106.669 104.256C106.611 103.45 106.245 102.696 105.645 102.146C105.045 101.596 104.255 101.29 103.435 101.292H78.3354ZM98.1725 90.3316C96.8881 90.335 95.6411 89.9055 94.6386 89.1144C89.7871 85.2787 84.0032 79.5167 84.0032 73.9333C83.9336 71.6396 84.7889 69.4121 86.3821 67.738C87.9753 66.0639 90.1767 65.0794 92.5047 65C94.6226 65.0081 96.6546 65.8258 98.1725 67.2808C99.6904 65.8258 101.722 65.0081 103.84 65C106.168 65.0794 108.37 66.0639 109.963 67.738C111.556 69.4121 112.411 71.6396 112.342 73.9333C112.342 79.5167 106.558 85.2787 101.703 89.1172C100.701 89.9067 99.4556 90.3351 98.1725 90.3316ZM92.5047 70.5833C91.6811 70.6647 90.9228 71.0613 90.3928 71.6878C89.8629 72.3142 89.6036 73.1206 89.6709 73.9333C89.6709 76.4458 92.9327 80.6054 98.1895 84.7622C103.412 80.6054 106.674 76.4458 106.674 73.9333C106.741 73.1206 106.482 72.3142 105.952 71.6878C105.422 71.0613 104.664 70.6647 103.84 70.5833C103.017 70.6647 102.258 71.0613 101.728 71.6878C101.198 72.3142 100.939 73.1206 101.006 73.9333C101.006 74.6737 100.708 75.3838 100.176 75.9073C99.6449 76.4309 98.9241 76.725 98.1725 76.725C97.4209 76.725 96.7001 76.4309 96.1686 75.9073C95.6372 75.3838 95.3386 74.6737 95.3386 73.9333C95.4058 73.1206 95.1466 72.3142 94.6167 71.6878C94.0867 71.0613 93.3284 70.6647 92.5047 70.5833Z" fill="#51323C"/>
</svg>
